MemphisRevival.ufo
<glyph name="exclam" format="2">
  <advance width="256"/>
  <unicode hex="0021"/>
  <outline>
    <contour>
      <point x="91" y="750" type="line"/>
      <point x="102" y="157" type="line"/>
      <point x="155" y="157" type="line"/>
      <point x="165" y="750" type="line"/>
    </contour>
    <contour>
      <point x="72" y="51" type="curve" smooth="yes"/>
      <point x="72" y="20"/>
      <point x="97" y="-5"/>
      <point x="128" y="-5" type="curve" smooth="yes"/>
      <point x="158" y="-5"/>
      <point x="184" y="20"/>
      <point x="184" y="51" type="curve" smooth="yes"/>
      <point x="184" y="81"/>
      <point x="158" y="107"/>
      <point x="128" y="107" type="curve" smooth="yes"/>
      <point x="97" y="107"/>
      <point x="72" y="81"/>
    </contour>
  </outline>
</glyph>
<glyph name="quotedbl" format="2">
  <advance width="358"/>
  <unicode hex="0022"/>
  <outline>
    <contour>
      <point x="245" y="551" type="line"/>
      <point x="268" y="551" type="line"/>
      <point x="296" y="720" type="line" smooth="yes"/>
      <point x="302" y="758"/>
      <point x="285" y="781"/>
      <point x="257" y="781" type="curve" smooth="yes"/>
      <point x="229" y="781"/>
      <point x="212" y="756"/>
      <point x="218" y="720" type="curve" smooth="yes"/>
    </contour>
    <contour>
      <point x="95" y="551" type="line"/>
      <point x="118" y="551" type="line"/>
      <point x="146" y="720" type="line" smooth="yes"/>
      <point x="152" y="758"/>
      <point x="135" y="781"/>
      <point x="107" y="781" type="curve" smooth="yes"/>
      <point x="79" y="781"/>
      <point x="62" y="756"/>
      <point x="68" y="720" type="curve" smooth="yes"/>
    </contour>
  </outline>
</glyph>
<glyph name="percent" format="2">
  <advance width="833"/>
  <unicode hex="0025"/>
  <outline>
    <contour>
      <point x="148" y="0" type="line"/>
      <point x="205" y="0" type="line"/>
      <point x="686" y="750" type="line"/>
      <point x="629" y="750" type="line"/>
    </contour>
    <contour>
      <point x="634" y="45" type="curve" smooth="yes"/>
      <point x="567" y="45"/>
      <point x="516" y="98"/>
      <point x="516" y="164" type="curve" smooth="yes"/>
      <point x="516" y="228"/>
      <point x="568" y="282"/>
      <point x="633" y="282" type="curve" smooth="yes"/>
      <point x="698" y="282"/>
      <point x="754" y="229"/>
      <point x="754" y="164" type="curve" smooth="yes"/>
      <point x="754" y="97"/>
      <point x="700" y="45"/>
    </contour>
    <contour>
      <point x="210" y="469" type="curve" smooth="yes"/>
      <point x="145" y="469"/>
      <point x="91" y="521"/>
      <point x="91" y="587" type="curve" smooth="yes"/>
      <point x="91" y="652"/>
      <point x="145" y="705"/>
      <point x="210" y="705" type="curve" smooth="yes"/>
      <point x="274" y="705"/>
      <point x="328" y="652"/>
      <point x="328" y="587" type="curve" smooth="yes"/>
      <point x="328" y="522"/>
      <point x="274" y="469"/>
    </contour>
    <contour>
      <point x="633" y="327" type="curve" smooth="yes"/>
      <point x="543" y="327"/>
      <point x="472" y="254"/>
      <point x="472" y="164" type="curve" smooth="yes"/>
      <point x="472" y="73"/>
      <point x="545" y="0"/>
      <point x="635" y="0" type="curve" smooth="yes"/>
      <point x="725" y="0"/>
      <point x="799" y="73"/>
      <point x="799" y="164" type="curve" smooth="yes"/>
      <point x="799" y="254"/>
      <point x="722" y="327"/>
    </contour>
    <contour>
      <point x="207" y="425" type="curve" smooth="yes"/>
      <point x="298" y="425"/>
      <point x="373" y="495"/>
      <point x="373" y="587" type="curve" smooth="yes"/>
      <point x="373" y="677"/>
      <point x="299" y="750"/>
      <point x="210" y="750" type="curve" smooth="yes"/>
      <point x="120" y="750"/>
      <point x="46" y="677"/>
      <point x="46" y="587" type="curve" smooth="yes"/>
      <point x="46" y="497"/>
      <point x="117" y="425"/>
    </contour>
  </outline>
</glyph>
<glyph name="ampersand" format="2">
  <advance width="722"/>
  <unicode hex="0026"/>
  <outline>
    <contour>
      <point x="428" y="166" type="line"/>
      <point x="375" y="107"/>
      <point x="295" y="40"/>
      <point x="210" y="40" type="curve" smooth="yes"/>
      <point x="139" y="40"/>
      <point x="87" y="93"/>
      <point x="87" y="162" type="curve" smooth="yes"/>
      <point x="87" y="241"/>
      <point x="192" y="335"/>
      <point x="240" y="377" type="curve"/>
    </contour>
    <contour>
      <point x="250" y="453" type="curve"/>
      <point x="218" y="493"/>
      <point x="174" y="535"/>
      <point x="174" y="588" type="curve" smooth="yes"/>
      <point x="174" y="647"/>
      <point x="204" y="700"/>
      <point x="268" y="700" type="curve" smooth="yes"/>
      <point x="322" y="700"/>
      <point x="366" y="658"/>
      <point x="366" y="603" type="curve" smooth="yes"/>
      <point x="366" y="533"/>
      <point x="300" y="498"/>
    </contour>
    <contour>
      <point x="581" y="1" type="line"/>
      <point x="695" y="1" type="line"/>
      <point x="695" y="50" type="line"/>
      <point x="608" y="50" type="line"/>
      <point x="502" y="169" type="line"/>
      <point x="557" y="236"/>
      <point x="595" y="312"/>
      <point x="625" y="395" type="curve"/>
      <point x="687" y="395" type="line"/>
      <point x="687" y="445" type="line"/>
      <point x="495" y="445" type="line"/>
      <point x="495" y="395" type="line"/>
      <point x="563" y="395" type="line"/>
      <point x="543" y="325"/>
      <point x="508" y="265"/>
      <point x="464" y="209" type="curve"/>
      <point x="283" y="413" type="line"/>
      <point x="345" y="469"/>
      <point x="422" y="512"/>
      <point x="422" y="602" type="curve" smooth="yes"/>
      <point x="422" y="682"/>
      <point x="354" y="750"/>
      <point x="275" y="750" type="curve" smooth="yes"/>
      <point x="183" y="750"/>
      <point x="118" y="687"/>
      <point x="118" y="594" type="curve" smooth="yes"/>
      <point x="118" y="513"/>
      <point x="161" y="480"/>
      <point x="208" y="419" type="curve"/>
      <point x="137" y="360"/>
      <point x="31" y="273"/>
      <point x="31" y="166" type="curve" smooth="yes"/>
      <point x="31" y="70"/>
      <point x="103" y="-10"/>
      <point x="206" y="-10" type="curve" smooth="yes"/>
      <point x="315" y="-10"/>
      <point x="397" y="48"/>
      <point x="467" y="125" type="curve"/>
    </contour>
  </outline>
</glyph>
<glyph name="asterisk" format="2">
  <advance width="389"/>
  <unicode hex="002A"/>
  <outline>
    <contour>
      <point x="96" y="514" type="line"/>
      <point x="162" y="598" type="line"/>
      <point x="59" y="634" type="line"/>
      <point x="75" y="675" type="line"/>
      <point x="177" y="642" type="line"/>
      <point x="176" y="749" type="line"/>
      <point x="224" y="749" type="line"/>
      <point x="225" y="640" type="line"/>
      <point x="323" y="675" type="line"/>
      <point x="338" y="631" type="line"/>
      <point x="233" y="596" type="line"/>
      <point x="296" y="504" type="line"/>
      <point x="258" y="478" type="line"/>
      <point x="197" y="570" type="line"/>
      <point x="132" y="485" type="line"/>
      <point x="96" y="514" type="line"/>
    </contour>
  </outline>
</glyph>
<glyph name="period" format="2">
  <advance width="250"/>
  <unicode hex="002E"/>
  <outline>
    <contour>
      <point x="71" y="49" type="line"/>
      <point x="71" y="70"/>
      <point x="103" y="102"/>
      <point x="125" y="102" type="qcurve"/>
      <point x="147" y="102"/>
      <point x="179" y="70"/>
      <point x="179" y="48" type="qcurve"/>
      <point x="179" y="26"/>
      <point x="147" y="-5"/>
      <point x="125" y="-5" type="qcurve"/>
      <point x="103" y="-5"/>
      <point x="71" y="26"/>
      <point x="71" y="48" type="qcurve"/>
    </contour>
  </outline>
</glyph>
<glyph name="zero" format="2">
  <advance width="675"/>
  <unicode hex="0030"/>
  <guideline x="2910" y="-155" angle="0"/>
  <outline>
    <contour>
      <point x="337.91788" y="-1" type="line"/>
      <point x="544.91788" y="-1"/>
      <point x="588.91788" y="129"/>
      <point x="588.91788" y="374" type="curve" smooth="yes"/>
      <point x="588.91788" y="619"/>
      <point x="543.91788" y="750"/>
      <point x="337.91788" y="750" type="curve"/>
      <point x="337.91788" y="704" type="line"/>
      <point x="351.91788" y="704"/>
      <point x="362.91788" y="703"/>
      <point x="375.91788" y="702" type="curve" smooth="yes"/>
      <point x="508.91788" y="687"/>
      <point x="532.91788" y="578"/>
      <point x="537.91788" y="374" type="curve"/>
      <point x="532.91788" y="193"/>
      <point x="510.91788" y="65"/>
      <point x="377.91788" y="47" type="curve"/>
      <point x="364.91788" y="46"/>
      <point x="351.91788" y="46"/>
      <point x="337.91788" y="46" type="curve"/>
    </contour>
    <contour>
      <point x="-22.08212" y="-1"/>
      <point x="-71.08212" y="-1"/>
      <point x="336.91788" y="-1" type="curve" smooth="yes"/>
    </contour>
    <contour>
      <point x="337.91788" y="-1" type="curve"/>
      <point x="337.91788" y="46" type="line"/>
      <point x="322.91788" y="46"/>
      <point x="311.91788" y="46"/>
      <point x="297.91788" y="47" type="curve"/>
      <point x="163.91788" y="65"/>
      <point x="142.91788" y="193"/>
      <point x="137.91788" y="374" type="curve"/>
      <point x="142.91788" y="578"/>
      <point x="166.91788" y="687"/>
      <point x="299.91788" y="702" type="curve" smooth="yes"/>
      <point x="312.91788" y="703"/>
      <point x="323.91788" y="704"/>
      <point x="337.91788" y="704" type="curve"/>
      <point x="337.91788" y="750" type="line"/>
      <point x="130.91788" y="750"/>
      <point x="86.91788" y="619"/>
      <point x="86.91788" y="374" type="curve" smooth="yes"/>
      <point x="86.91788" y="129"/>
      <point x="129.91788" y="-1"/>
    </contour>
    <contour>
      <point x="745.91788" y="-1"/>
      <point x="697.91788" y="-1"/>
      <point x="338.91788" y="-1" type="curve" smooth="yes"/>
    </contour>
  </outline>
</glyph>
<glyph name="one" format="2">
  <advance width="339"/>
  <unicode hex="0031"/>
  <outline>
    <contour>
      <point x="291" y="0" type="line"/>
      <point x="48" y="0" type="line"/>
      <point x="48" y="50" type="line"/>
      <point x="139" y="50" type="line"/>
      <point x="139" y="699" type="line"/>
      <point x="51" y="699" type="line"/>
      <point x="51" y="750" type="line"/>
      <point x="200" y="750" type="line"/>
      <point x="200" y="50" type="line"/>
      <point x="291" y="50" type="line"/>
      <point x="291" y="0" type="line"/>
    </contour>
  </outline>
</glyph>
<glyph name="two" format="2">
  <advance width="533"/>
  <unicode hex="0032"/>
  <outline>
    <contour>
      <point x="484" y="0" type="line"/>
      <point x="49" y="0" type="line"/>
      <point x="49" y="48" type="line"/>
      <point x="305" y="352" type="line" smooth="yes"/>
      <point x="311" y="359"/>
      <point x="325" y="375"/>
      <point x="332" y="384" type="qcurve"/>
      <point x="361" y="422"/>
      <point x="410" y="502"/>
      <point x="413" y="552" type="qcurve"/>
      <point x="413" y="555"/>
      <point x="413" y="560"/>
      <point x="413" y="563" type="qcurve"/>
      <point x="413" y="632"/>
      <point x="328" y="706"/>
      <point x="261" y="706" type="qcurve"/>
      <point x="193" y="706"/>
      <point x="99" y="615"/>
      <point x="99" y="550" type="qcurve"/>
      <point x="97" y="501" type="line"/>
      <point x="50" y="501" type="line"/>
      <point x="50" y="541" type="line"/>
      <point x="50" y="633"/>
      <point x="167" y="750"/>
      <point x="261" y="750" type="qcurve"/>
      <point x="341" y="750"/>
      <point x="463" y="653"/>
      <point x="463" y="567" type="qcurve"/>
      <point x="463" y="504"/>
      <point x="396" y="385"/>
      <point x="354" y="333" type="qcurve"/>
      <point x="337" y="313"/>
      <point x="305" y="276"/>
      <point x="290" y="259" type="qcurve"/>
      <point x="120" y="58" type="line"/>
      <point x="430" y="58" type="line"/>
      <point x="430" y="181" type="line"/>
      <point x="484" y="181" type="line"/>
      <point x="484" y="0" type="line"/>
    </contour>
  </outline>
</glyph>
<glyph name="three" format="2">
  <advance width="516"/>
  <unicode hex="0033"/>
  <outline>
    <contour>
      <point x="55" y="587" type="line"/>
      <point x="108" y="577" type="line"/>
    </contour>
    <contour>
      <point x="42" y="167" type="line"/>
      <point x="60" y="69"/>
      <point x="134" y="-1"/>
      <point x="250" y="-1" type="curve" smooth="yes"/>
      <point x="365" y="-1"/>
      <point x="455" y="83"/>
      <point x="455" y="209" type="curve" smooth="yes"/>
      <point x="455" y="296"/>
      <point x="410" y="359"/>
      <point x="328" y="389" type="curve"/>
      <point x="402" y="417"/>
      <point x="451" y="475"/>
      <point x="451" y="558" type="curve" smooth="yes"/>
      <point x="451" y="660"/>
      <point x="363" y="750"/>
      <point x="250" y="750" type="curve" smooth="yes"/>
      <point x="147" y="750"/>
      <point x="75" y="688"/>
      <point x="55" y="587" type="curve"/>
      <point x="108" y="577" type="line"/>
      <point x="122" y="643"/>
      <point x="166" y="700"/>
      <point x="250" y="700" type="curve" smooth="yes"/>
      <point x="330" y="700"/>
      <point x="395" y="648"/>
      <point x="395" y="554" type="curve" smooth="yes"/>
      <point x="395" y="484"/>
      <point x="344" y="429"/>
      <point x="279" y="415" type="curve" smooth="yes"/>
      <point x="256" y="410"/>
      <point x="232" y="409"/>
      <point x="209" y="409" type="curve"/>
      <point x="209" y="362" type="line"/>
      <point x="223" y="362"/>
      <point x="243" y="361"/>
      <point x="264" y="359" type="curve" smooth="yes"/>
      <point x="342" y="351"/>
      <point x="399" y="300"/>
      <point x="399" y="206" type="curve" smooth="yes"/>
      <point x="399" y="114"/>
      <point x="338" y="49"/>
      <point x="250" y="49" type="curve" smooth="yes"/>
      <point x="159" y="49"/>
      <point x="105" y="105"/>
      <point x="93" y="183" type="curve"/>
    </contour>
    <contour>
      <point x="42" y="167" type="line"/>
      <point x="93" y="183" type="line"/>
    </contour>
  </outline>
</glyph>
<glyph name="five" format="2">
  <advance width="515"/>
  <unicode hex="0035"/>
  <outline>
    <contour>
      <point x="88" y="96" type="line"/>
      <point x="86" y="98"/>
      <point x="49" y="62"/>
      <point x="48" y="64" type="curve"/>
    </contour>
    <contour>
      <point x="55" y="58" type="curve" smooth="yes"/>
      <point x="91" y="23"/>
      <point x="156" y="0"/>
      <point x="230" y="0" type="curve" smooth="yes"/>
      <point x="362" y="0"/>
      <point x="467" y="96"/>
      <point x="467" y="231" type="curve" smooth="yes"/>
      <point x="467" y="370"/>
      <point x="370" y="475"/>
      <point x="227" y="464" type="curve"/>
      <point x="191" y="466"/>
      <point x="171" y="451"/>
      <point x="139" y="429" type="curve"/>
      <point x="139" y="697" type="line"/>
      <point x="426" y="697" type="line"/>
      <point x="426" y="750" type="line"/>
      <point x="79" y="750" type="line"/>
      <point x="79" y="386" type="line"/>
      <point x="124" y="374" type="line"/>
      <point x="169" y="394"/>
      <point x="174" y="414"/>
      <point x="225" y="415" type="curve" smooth="yes"/>
      <point x="343" y="417"/>
      <point x="400" y="343"/>
      <point x="400" y="231" type="curve" smooth="yes"/>
      <point x="400" y="118"/>
      <point x="338" y="50"/>
      <point x="229" y="50" type="curve" smooth="yes"/>
      <point x="165" y="50"/>
      <point x="132" y="58"/>
      <point x="102" y="83" type="curve" smooth="yes"/>
      <point x="95" y="88"/>
      <point x="91" y="92"/>
      <point x="88" y="96" type="curve"/>
      <point x="48" y="64" type="line"/>
      <point x="50" y="62"/>
      <point x="53" y="60"/>
    </contour>
  </outline>
</glyph>
<glyph name="six" format="2">
  <advance width="577"/>
  <unicode hex="0036"/>
  <outline>
    <contour>
      <point x="299" y="50" type="curve" smooth="yes"/>
      <point x="186" y="50"/>
      <point x="114.0" y="126.2235"/>
      <point x="114" y="229" type="curve" smooth="yes"/>
      <point x="114" y="328"/>
      <point x="192" y="401"/>
      <point x="298" y="401" type="curve" smooth="yes"/>
      <point x="409" y="401"/>
      <point x="473" y="332"/>
      <point x="473" y="228" type="curve" smooth="yes"/>
      <point x="473" y="121"/>
      <point x="405" y="50"/>
    </contour>
    <contour>
      <point x="488" y="662" type="line"/>
      <point x="481" y="678"/>
      <point x="469" y="695"/>
      <point x="453" y="708" type="curve" smooth="yes"/>
      <point x="423" y="733"/>
      <point x="379" y="750"/>
      <point x="325" y="750" type="curve" smooth="yes"/>
      <point x="183" y="750"/>
      <point x="48" y="627"/>
      <point x="48" y="314" type="curve" smooth="yes"/>
      <point x="48" y="198"/>
      <point x="75" y="116"/>
      <point x="126" y="67" type="curve" smooth="yes"/>
      <point x="170" y="24"/>
      <point x="228" y="0"/>
      <point x="299" y="0" type="curve" smooth="yes"/>
      <point x="431" y="0"/>
      <point x="529" y="102"/>
      <point x="529" y="230" type="curve" smooth="yes"/>
      <point x="529" y="356"/>
      <point x="438" y="451"/>
      <point x="298" y="451" type="curve" smooth="yes"/>
      <point x="206" y="451"/>
      <point x="122" y="398"/>
      <point x="95" y="318" type="curve"/>
      <point x="96" y="569"/>
      <point x="187" y="699"/>
      <point x="323" y="699" type="curve" smooth="yes"/>
      <point x="369" y="699"/>
      <point x="408" y="693"/>
      <point x="423" y="673" type="curve"/>
      <point x="426" y="668"/>
      <point x="429" y="665"/>
      <point x="431" y="662" type="curve"/>
      <point x="431" y="662"/>
      <point x="431" y="662"/>
      <point x="430" y="662" type="curve"/>
    </contour>
    <contour>
      <point x="488" y="662" type="line"/>
      <point x="430" y="662" type="line"/>
    </contour>
  </outline>
</glyph>
<glyph name="seven" format="2">
  <advance width="482"/>
  <unicode hex="0037"/>
  <outline>
    <contour>
      <point x="392" y="701" type="line"/>
      <point x="392" y="701" type="line"/>
      <point x="68" y="701" type="line"/>
      <point x="68" y="573" type="line"/>
      <point x="18" y="573" type="line"/>
      <point x="18" y="751" type="line"/>
      <point x="424" y="751" type="line"/>
      <point x="458" y="702" type="line"/>
      <point x="388" y="587"/>
      <point x="338" y="408" type="qcurve"/>
      <point x="294" y="242"/>
      <point x="283" y="1" type="qcurve"/>
      <point x="225" y="1" type="line"/>
      <point x="247" y="268"/>
      <point x="333" y="564"/>
      <point x="392" y="701" type="qcurve"/>
      <point x="392" y="701" type="line"/>
      <point x="392" y="701" type="line"/>
      <point x="392" y="701" type="line"/>
    </contour>
  </outline>
</glyph>
<glyph name="eight" format="2">
  <advance width="518"/>
  <unicode hex="0038"/>
  <guideline x="2910" y="-155" angle="0" identifier="HW30UVSdEV"/>
  <outline>
    <contour>
      <point x="472" y="205" type="line"/>
      <point x="472" y="112"/>
      <point x="350" y="-3"/>
      <point x="261" y="-3" type="qcurve"/>
      <point x="166" y="-3"/>
      <point x="46" y="122"/>
      <point x="46" y="211" type="qcurve"/>
      <point x="46" y="270"/>
      <point x="119" y="372"/>
      <point x="171" y="388" type="qcurve"/>
      <point x="119" y="414"/>
      <point x="56" y="497"/>
      <point x="56" y="557" type="qcurve"/>
      <point x="56" y="649"/>
      <point x="174" y="753"/>
      <point x="261" y="753" type="qcurve"/>
      <point x="344" y="753"/>
      <point x="462" y="641"/>
      <point x="462" y="558" type="qcurve"/>
      <point x="462" y="505"/>
      <point x="397" y="410"/>
      <point x="348" y="388" type="qcurve"/>
      <point x="405" y="367"/>
      <point x="472" y="264"/>
      <point x="472" y="204" type="qcurve"/>
    </contour>
    <contour>
      <point x="419" y="206" type="line"/>
      <point x="419" y="268"/>
      <point x="325" y="364"/>
      <point x="261" y="364" type="qcurve"/>
      <point x="192" y="364"/>
      <point x="99" y="278"/>
      <point x="99" y="208" type="qcurve"/>
      <point x="99" y="134"/>
      <point x="195" y="43"/>
      <point x="261" y="43" type="qcurve"/>
      <point x="333" y="43"/>
      <point x="419" y="144"/>
      <point x="419" y="205" type="qcurve"/>
    </contour>
    <contour>
      <point x="408" y="560" type="line"/>
      <point x="408" y="626"/>
      <point x="324" y="706"/>
      <point x="261" y="706" type="qcurve"/>
      <point x="201" y="706"/>
      <point x="109" y="624"/>
      <point x="109" y="564" type="qcurve"/>
      <point x="109" y="497"/>
      <point x="194" y="411"/>
      <point x="261" y="411" type="qcurve"/>
      <point x="324" y="411"/>
      <point x="408" y="496"/>
      <point x="408" y="559" type="qcurve"/>
    </contour>
  </outline>
</glyph>
<glyph name="nine" format="2">
  <advance width="518"/>
  <unicode hex="0039"/>
  <outline>
    <contour>
      <point x="262" y="337" type="curve" smooth="yes"/>
      <point x="212" y="337"/>
      <point x="112" y="380"/>
      <point x="112" y="516" type="curve" smooth="yes"/>
      <point x="112" y="607"/>
      <point x="165" y="706"/>
      <point x="267" y="706" type="curve" smooth="yes"/>
      <point x="371" y="706"/>
      <point x="440" y="625"/>
      <point x="440" y="524" type="curve" smooth="yes"/>
      <point x="440" y="417"/>
      <point x="373" y="337"/>
    </contour>
    <contour>
      <point x="87" y="151" type="line"/>
      <point x="95" y="56"/>
      <point x="175" y="-5"/>
      <point x="274" y="-5" type="curve" smooth="yes"/>
      <point x="420" y="-5"/>
      <point x="497" y="132"/>
      <point x="497" y="288" type="curve" smooth="yes"/>
      <point x="497" y="510" type="line" smooth="yes"/>
      <point x="497" y="624"/>
      <point x="436" y="756"/>
      <point x="273" y="756" type="curve" smooth="yes"/>
      <point x="131" y="756"/>
      <point x="57" y="635"/>
      <point x="57" y="518" type="curve" smooth="yes"/>
      <point x="57" y="398"/>
      <point x="134" y="286"/>
      <point x="265" y="286" type="curve" smooth="yes"/>
      <point x="330" y="286"/>
      <point x="411" y="319"/>
      <point x="442" y="376" type="curve"/>
      <point x="443" y="376" type="line"/>
      <point x="443" y="319" type="line" smooth="yes"/>
      <point x="443" y="249"/>
      <point x="440" y="216"/>
      <point x="427" y="166" type="curve" smooth="yes"/>
      <point x="409" y="98"/>
      <point x="354" y="46"/>
      <point x="272" y="46" type="curve" smooth="yes"/>
      <point x="191" y="46"/>
      <point x="141" y="89"/>
      <point x="139" y="162" type="curve"/>
    </contour>
    <contour>
      <point x="86" y="159" type="line"/>
      <point x="86" y="157"/>
      <point x="86" y="154"/>
      <point x="87" y="151" type="curve"/>
      <point x="139" y="162" type="line"/>
      <point x="139" y="164"/>
      <point x="139" y="164"/>
      <point x="139" y="166" type="curve"/>
    </contour>
    <contour>
      <point x="86" y="159" type="curve"/>
      <point x="139" y="166" type="line"/>
      <point x="139" y="166"/>
      <point x="86" y="159"/>
    </contour>
  </outline>
</glyph>
<glyph name="less" format="2">
  <advance width="600"/>
  <unicode hex="003C"/>
  <outline>
    <contour>
      <point x="554" y="21" type="line"/>
      <point x="108" y="227" type="line"/>
      <point x="554" y="433" type="line"/>
      <point x="554" y="488" type="line"/>
      <point x="46" y="254" type="line"/>
      <point x="46" y="200" type="line"/>
      <point x="554" y="-34" type="line"/>
    </contour>
  </outline>
</glyph>
<glyph name="equal" format="2">
  <advance width="600"/>
  <unicode hex="003D"/>
  <outline>
    <contour>
      <point x="527" y="396" type="line"/>
      <point x="73" y="396" type="line"/>
      <point x="73" y="352" type="line"/>
      <point x="527" y="352" type="line"/>
    </contour>
    <contour>
      <point x="527" y="202" type="line"/>
      <point x="73" y="202" type="line"/>
      <point x="73" y="158" type="line"/>
      <point x="527" y="158" type="line"/>
    </contour>
  </outline>
</glyph>
<glyph name="greater" format="2">
  <advance width="600"/>
  <unicode hex="003E"/>
  <outline>
    <contour>
      <point x="46" y="21" type="line"/>
      <point x="46" y="-34" type="line"/>
      <point x="554" y="200" type="line"/>
      <point x="554" y="254" type="line"/>
      <point x="46" y="488" type="line"/>
      <point x="46" y="433" type="line"/>
      <point x="492" y="227" type="line"/>
    </contour>
  </outline>
</glyph>
<glyph name="question" format="2">
  <advance width="442"/>
  <unicode hex="003F"/>
  <outline>
    <contour>
      <point x="223" y="335" type="line"/>
      <point x="339" y="335"/>
      <point x="415" y="433"/>
      <point x="415" y="543" type="curve" smooth="yes"/>
      <point x="415" y="655"/>
      <point x="333" y="750"/>
      <point x="218" y="750" type="curve" smooth="yes"/>
      <point x="103" y="750"/>
      <point x="23" y="664"/>
      <point x="20" y="552" type="curve"/>
      <point x="74" y="552" type="line"/>
      <point x="75" y="634"/>
      <point x="134" y="702"/>
      <point x="218" y="702" type="curve" smooth="yes"/>
      <point x="301" y="702"/>
      <point x="361" y="626"/>
      <point x="361" y="547" type="curve" smooth="yes"/>
      <point x="361" y="434"/>
      <point x="277" y="372"/>
      <point x="169" y="384" type="curve"/>
      <point x="169" y="151" type="line"/>
      <point x="223" y="151" type="line"/>
    </contour>
    <contour>
      <point x="140" y="51" type="curve" smooth="yes"/>
      <point x="140" y="20"/>
      <point x="165" y="-5"/>
      <point x="196" y="-5" type="curve" smooth="yes"/>
      <point x="226" y="-5"/>
      <point x="252" y="20"/>
      <point x="252" y="51" type="curve" smooth="yes"/>
      <point x="252" y="81"/>
      <point x="226" y="107"/>
      <point x="196" y="107" type="curve" smooth="yes"/>
      <point x="165" y="107"/>
      <point x="140" y="81"/>
    </contour>
  </outline>
</glyph>
<glyph name="at" format="2">
  <advance width="787"/>
  <unicode hex="0040"/>
  <outline>
    <contour>
      <point x="422" y="-3" type="curve" smooth="yes"/>
      <point x="486" y="-3"/>
      <point x="548" y="12"/>
      <point x="601" y="41" type="curve"/>
      <point x="588" y="65" type="line"/>
      <point x="540" y="39"/>
      <point x="482" y="34"/>
      <point x="422" y="34" type="curve" smooth="yes"/>
      <point x="270" y="34"/>
      <point x="133" y="116"/>
      <point x="133" y="264" type="curve" smooth="yes"/>
      <point x="133" y="527"/>
      <point x="260" y="630"/>
      <point x="469" y="634" type="curve" smooth="yes"/>
      <point x="623" y="637"/>
      <point x="714" y="540"/>
      <point x="714" y="393" type="curve" smooth="yes"/>
      <point x="714" y="263"/>
      <point x="648" y="189"/>
      <point x="567" y="189" type="curve" smooth="yes"/>
      <point x="522" y="189"/>
      <point x="512" y="214"/>
      <point x="524" y="271" type="curve" smooth="yes"/>
      <point x="571" y="490" type="line"/>
      <point x="537" y="490" type="line"/>
      <point x="517" y="395" type="line"/>
      <point x="508" y="447"/>
      <point x="470" y="491"/>
      <point x="401" y="488" type="curve" smooth="yes"/>
      <point x="306" y="485"/>
      <point x="237" y="413"/>
      <point x="237" y="296" type="curve" smooth="yes"/>
      <point x="237" y="207"/>
      <point x="290" y="147"/>
      <point x="363" y="147" type="curve" smooth="yes"/>
      <point x="422" y="147"/>
      <point x="469" y="184"/>
      <point x="492" y="232" type="curve"/>
      <point x="485" y="186"/>
      <point x="505" y="150"/>
      <point x="566" y="150" type="curve" smooth="yes"/>
      <point x="662" y="150"/>
      <point x="754" y="239"/>
      <point x="754" y="393" type="curve" smooth="yes"/>
      <point x="754" y="560"/>
      <point x="640" y="671"/>
      <point x="469" y="671" type="curve" smooth="yes"/>
      <point x="243" y="671"/>
      <point x="93" y="555"/>
      <point x="93" y="265" type="curve" smooth="yes"/>
      <point x="93" y="97"/>
      <point x="254" y="-3"/>
    </contour>
    <contour>
      <point x="369" y="189" type="curve" smooth="yes"/>
      <point x="308" y="189"/>
      <point x="285" y="231"/>
      <point x="285" y="297" type="curve" smooth="yes"/>
      <point x="285" y="393"/>
      <point x="322" y="443"/>
      <point x="404" y="446" type="curve" smooth="yes"/>
      <point x="462" y="448"/>
      <point x="484" y="420"/>
      <point x="486" y="356" type="curve" smooth="yes"/>
      <point x="489" y="273"/>
      <point x="459" y="189"/>
    </contour>
    <contour>
      <point x="537" y="490" type="line"/>
      <point x="530" y="462" type="line"/>
      <point x="613" y="462" type="line"/>
      <point x="619" y="490" type="line"/>
    </contour>
  </outline>
</glyph>
<glyph name="A" format="2">
  <advance width="778"/>
  <unicode hex="0041"/>
  <outline>
    <contour>
      <point x="257" y="0" type="line"/>
      <point x="257" y="50" type="line"/>
      <point x="177" y="50" type="line"/>
      <point x="241" y="237" type="line"/>
      <point x="532" y="237" type="line"/>
      <point x="596" y="50" type="line"/>
      <point x="516" y="50" type="line"/>
      <point x="516" y="0" type="line"/>
      <point x="752" y="0" type="line"/>
      <point x="752" y="50" type="line"/>
      <point x="664" y="50" type="line"/>
      <point x="441" y="702" type="line"/>
      <point x="511" y="702" type="line"/>
      <point x="511" y="750" type="line"/>
      <point x="265" y="750" type="line"/>
      <point x="265" y="702" type="line"/>
      <point x="335" y="702" type="line"/>
      <point x="111" y="50" type="line"/>
      <point x="23" y="50" type="line"/>
      <point x="23" y="0" type="line"/>
    </contour>
    <contour>
      <point x="258" y="285" type="line"/>
      <point x="386" y="678" type="line"/>
      <point x="388" y="678" type="line"/>
      <point x="515" y="285" type="line"/>
    </contour>
  </outline>
</glyph>
<glyph name="C" format="2">
  <advance width="829"/>
  <unicode hex="0043"/>
  <image fileName="C_.png" xScale="7.5477544914275905" yScale="7.055369458067773" xOffset="-57.669282304204344" yOffset="-110.57867441371536"/>
  <guideline x="2910" y="-155" angle="0" identifier="uaERWTL1pR"/>
  <outline>
    <contour>
      <point x="680" y="517"/>
      <point x="732" y="517"/>
      <point x="732" y="517" type="curve"/>
      <point x="680" y="517" type="line"/>
    </contour>
    <contour>
      <point x="732" y="517" type="line"/>
      <point x="732" y="749" type="line"/>
      <point x="680" y="749" type="line"/>
      <point x="680" y="517" type="line"/>
    </contour>
    <contour>
      <point x="736" y="240" type="line"/>
      <point x="691" y="257" type="line"/>
      <point x="689" y="251"/>
      <point x="688" y="246"/>
      <point x="686" y="240" type="curve"/>
    </contour>
    <contour>
      <point x="739" y="235" type="line"/>
      <point x="739" y="236"/>
      <point x="740" y="238"/>
      <point x="740" y="239" type="curve"/>
      <point x="736" y="240" type="line"/>
      <point x="686" y="240" type="line"/>
      <point x="685" y="238"/>
      <point x="685" y="237"/>
      <point x="684" y="235" type="curve"/>
    </contour>
    <contour>
      <point x="732" y="517" type="line"/>
      <point x="693" y="678"/>
      <point x="582" y="757"/>
      <point x="413" y="757" type="curve"/>
      <point x="196" y="757"/>
      <point x="40" y="630"/>
      <point x="40" y="383" type="curve"/>
      <point x="44" y="106"/>
      <point x="192" y="-3"/>
      <point x="414" y="-3" type="curve"/>
      <point x="595" y="-3"/>
      <point x="694" y="65"/>
      <point x="739" y="235" type="curve"/>
      <point x="684" y="235" type="line"/>
      <point x="642" y="106"/>
      <point x="570" y="47"/>
      <point x="414" y="46" type="curve" smooth="yes"/>
      <point x="213" y="45"/>
      <point x="92" y="164"/>
      <point x="92" y="383" type="curve"/>
      <point x="92" y="594"/>
      <point x="242" y="718"/>
      <point x="414" y="712" type="curve"/>
      <point x="542" y="712"/>
      <point x="640" y="648"/>
      <point x="680" y="517" type="curve"/>
    </contour>
  </outline>
</glyph>
<glyph name="D" format="2">
  <advance width="722"/>
  <unicode hex="0044"/>
  <outline>
    <contour>
      <point x="7" y="0" type="line"/>
      <point x="7" y="50" type="line"/>
      <point x="95" y="50" type="line"/>
      <point x="95" y="700" type="line"/>
      <point x="7" y="700" type="line"/>
      <point x="7" y="750" type="line"/>
      <point x="239" y="750" type="line"/>
      <point x="241" y="749"/>
      <point x="247" y="749"/>
      <point x="250" y="749" type="qcurve"/>
      <point x="329" y="749"/>
      <point x="473" y="730"/>
      <point x="543" y="674" type="qcurve"/>
      <point x="551" y="667"/>
      <point x="569" y="651"/>
      <point x="577" y="643" type="qcurve"/>
      <point x="629" y="591"/>
      <point x="685" y="455"/>
      <point x="685" y="383" type="qcurve"/>
      <point x="685" y="300"/>
      <point x="629" y="160"/>
      <point x="579" y="109" type="qcurve"/>
      <point x="529" y="58"/>
      <point x="390" y="0"/>
      <point x="307" y="0" type="qcurve"/>
      <point x="7" y="0" type="line"/>
    </contour>
    <contour>
      <point x="151" y="700" type="line"/>
      <point x="151" y="50" type="line"/>
      <point x="332" y="50" type="line"/>
      <point x="446" y="50"/>
      <point x="629" y="236"/>
      <point x="629" y="383" type="qcurve"/>
      <point x="629" y="520"/>
      <point x="453" y="695"/>
      <point x="321" y="699" type="qcurve"/>
      <point x="151" y="700" type="line"/>
    </contour>
  </outline>
</glyph>
<glyph name="E" format="2">
  <advance width="588"/>
  <unicode hex="0045"/>
  <outline>
    <contour>
      <point x="179" y="427" type="line"/>
      <point x="179" y="700" type="line"/>
      <point x="495" y="700" type="line"/>
      <point x="495" y="598" type="line"/>
      <point x="545" y="598" type="line"/>
      <point x="545" y="750" type="line"/>
      <point x="43" y="750" type="line"/>
      <point x="43" y="700" type="line"/>
      <point x="118" y="700" type="line"/>
      <point x="118" y="50" type="line"/>
      <point x="43" y="50" type="line"/>
      <point x="43" y="0" type="line"/>
      <point x="335" y="0" type="line"/>
      <point x="335" y="1" type="line"/>
      <point x="545" y="1" type="line"/>
      <point x="545" y="153" type="line"/>
      <point x="495" y="153" type="line"/>
      <point x="495" y="50" type="line"/>
      <point x="179" y="50" type="line"/>
      <point x="179" y="375" type="line"/>
      <point x="444" y="375" type="line"/>
      <point x="444" y="427" type="line"/>
    </contour>
  </outline>
</glyph>
<glyph name="F" format="2">
  <advance width="609"/>
  <unicode hex="0046"/>
  <outline>
    <contour>
      <point x="188" y="427" type="line"/>
      <point x="188" y="700" type="line"/>
      <point x="329" y="700" type="line"/>
      <point x="329" y="698" type="line"/>
      <point x="504" y="698" type="line"/>
      <point x="504" y="598" type="line"/>
      <point x="554" y="598" type="line"/>
      <point x="554" y="750" type="line"/>
      <point x="52" y="750" type="line"/>
      <point x="52" y="700" type="line"/>
      <point x="127" y="700" type="line"/>
      <point x="127" y="50" type="line"/>
      <point x="52" y="50" type="line"/>
      <point x="52" y="0" type="line"/>
      <point x="264" y="0" type="line"/>
      <point x="264" y="50" type="line"/>
      <point x="188" y="50" type="line"/>
      <point x="188" y="375" type="line"/>
      <point x="453" y="375" type="line"/>
      <point x="453" y="427" type="line"/>
    </contour>
  </outline>
</glyph>
<glyph name="G" format="2">
  <advance width="829"/>
  <unicode hex="0047"/>
  <guideline x="2910" y="-155" angle="0" identifier="uaERWTL1pR"/>
  <outline>
    <contour>
      <point x="680" y="517"/>
      <point x="732" y="517"/>
      <point x="732" y="517" type="curve"/>
      <point x="680" y="517" type="line"/>
    </contour>
    <contour>
      <point x="732" y="517" type="line"/>
      <point x="732" y="749" type="line"/>
      <point x="680" y="749" type="line"/>
      <point x="680" y="517" type="line"/>
    </contour>
    <contour>
      <point x="684" y="235"/>
      <point x="686" y="238"/>
      <point x="684" y="235" type="curve"/>
    </contour>
    <contour>
      <point x="732" y="517" type="line"/>
      <point x="693" y="678"/>
      <point x="582" y="757"/>
      <point x="413" y="757" type="curve"/>
      <point x="196" y="757"/>
      <point x="40" y="630"/>
      <point x="40" y="383" type="curve"/>
      <point x="44" y="106"/>
      <point x="192" y="-3"/>
      <point x="414" y="-3" type="curve"/>
      <point x="595" y="-3"/>
      <point x="691" y="65"/>
      <point x="736" y="235" type="curve"/>
      <point x="684" y="235" type="line"/>
      <point x="642" y="106"/>
      <point x="570" y="47"/>
      <point x="414" y="46" type="curve" smooth="yes"/>
      <point x="213" y="45"/>
      <point x="92" y="164"/>
      <point x="92" y="383" type="curve"/>
      <point x="92" y="594"/>
      <point x="242" y="718"/>
      <point x="414" y="712" type="curve"/>
      <point x="542" y="712"/>
      <point x="640" y="648"/>
      <point x="680" y="517" type="curve"/>
    </contour>
    <contour>
      <point x="739" y="270" type="line"/>
      <point x="687" y="269" type="line"/>
    </contour>
    <contour>
      <point x="811" y="265"/>
      <point x="811" y="317"/>
      <point x="811" y="317" type="curve"/>
      <point x="811" y="265" type="line"/>
    </contour>
    <contour>
      <point x="811" y="317" type="line"/>
      <point x="811" y="265" type="line"/>
    </contour>
    <contour>
      <point x="811" y="265" type="move"/>
      <point x="811" y="317" type="line"/>
    </contour>
    <contour>
      <point x="684" y="269" type="move"/>
      <point x="458" y="270" type="line"/>
      <point x="458" y="318" type="line"/>
      <point x="810" y="318" type="line"/>
      <point x="810" y="270" type="line"/>
      <point x="731" y="270" type="line"/>
    </contour>
    <contour>
      <point x="736" y="235" type="line"/>
      <point x="736" y="238"/>
      <point x="685" y="238"/>
      <point x="684" y="235" type="curve"/>
    </contour>
    <contour>
      <point x="684" y="235" type="move"/>
    </contour>
    <contour>
      <point x="739" y="270" type="line"/>
      <point x="687" y="269" type="line"/>
    </contour>
    <contour>
      <point x="684" y="-1" type="curve"/>
      <point x="736" y="-1" type="line"/>
      <point x="736" y="270" type="line"/>
      <point x="684" y="269" type="line"/>
      <point x="684" y="269"/>
      <point x="684" y="-1"/>
    </contour>
  </outline>
</glyph>
<glyph name="H" format="2">
  <advance width="717"/>
  <unicode hex="0048"/>
  <outline>
    <contour>
      <point x="170" y="427" type="line"/>
      <point x="170" y="700" type="line"/>
      <point x="245" y="700" type="line"/>
      <point x="245" y="750" type="line"/>
      <point x="35" y="750" type="line"/>
      <point x="35" y="700" type="line"/>
      <point x="110" y="700" type="line"/>
      <point x="110" y="50" type="line"/>
      <point x="35" y="50" type="line"/>
      <point x="35" y="0" type="line"/>
      <point x="245" y="0" type="line"/>
      <point x="245" y="50" type="line"/>
      <point x="170" y="50" type="line"/>
      <point x="170" y="375" type="line"/>
      <point x="545" y="375" type="line"/>
      <point x="545" y="50" type="line"/>
      <point x="470" y="50" type="line"/>
      <point x="470" y="0" type="line"/>
      <point x="680" y="0" type="line"/>
      <point x="680" y="50" type="line"/>
      <point x="605" y="50" type="line"/>
      <point x="605" y="700" type="line"/>
      <point x="680" y="700" type="line"/>
      <point x="680" y="750" type="line"/>
      <point x="470" y="750" type="line"/>
      <point x="470" y="700" type="line"/>
      <point x="545" y="700" type="line"/>
      <point x="545" y="427" type="line"/>
    </contour>
  </outline>
</glyph>
<glyph name="I" format="2">
  <advance width="717"/>
  <unicode hex="0049"/>
  <outline>
    <contour>
      <point x="189" y="50" type="line"/>
      <point x="189" y="0" type="line"/>
      <point x="391" y="0" type="line"/>
      <point x="391" y="50" type="line"/>
      <point x="316" y="50" type="line"/>
      <point x="316" y="700" type="line"/>
      <point x="391" y="700" type="line"/>
      <point x="391" y="750" type="line"/>
      <point x="189" y="750" type="line"/>
      <point x="189" y="700" type="line"/>
      <point x="264" y="700" type="line"/>
      <point x="264" y="50" type="line"/>
    </contour>
  </outline>
</glyph>
<glyph name="J" format="2">
  <advance width="327"/>
  <unicode hex="004A"/>
  <outline>
    <contour>
      <point x="1" y="-56" type="line"/>
      <point x="136" y="-56"/>
      <point x="248" y="1"/>
      <point x="248" y="178" type="curve"/>
      <point x="248" y="698" type="line"/>
      <point x="323" y="698" type="line"/>
      <point x="323" y="750" type="line"/>
      <point x="113" y="750" type="line"/>
      <point x="113" y="698" type="line"/>
      <point x="188" y="698" type="line"/>
      <point x="188" y="160" type="line"/>
      <point x="188" y="37"/>
      <point x="94" y="-2"/>
      <point x="1" y="-4" type="curve"/>
    </contour>
  </outline>
</glyph>
<glyph name="K" format="2">
  <advance width="684"/>
  <unicode hex="004B"/>
  <outline>
    <contour>
      <point x="256" y="0" type="line"/>
      <point x="22" y="0" type="line"/>
      <point x="22" y="50" type="line"/>
      <point x="113" y="50" type="line"/>
      <point x="113" y="700" type="line"/>
      <point x="22" y="700" type="line"/>
      <point x="22" y="750" type="line"/>
      <point x="256" y="750" type="line"/>
      <point x="256" y="700" type="line"/>
      <point x="169" y="700" type="line"/>
      <point x="169" y="388" type="line"/>
      <point x="502" y="700" type="line"/>
      <point x="419" y="700" type="line"/>
      <point x="419" y="750" type="line"/>
      <point x="657" y="750" type="line"/>
      <point x="657" y="700" type="line"/>
      <point x="576" y="700" type="line"/>
      <point x="228" y="379" type="line"/>
      <point x="574" y="50" type="line"/>
      <point x="662" y="50" type="line"/>
      <point x="662" y="0" type="line"/>
      <point x="413" y="0" type="line"/>
      <point x="413" y="50" type="line"/>
      <point x="494" y="50" type="line"/>
      <point x="169" y="368" type="line"/>
      <point x="169" y="50" type="line"/>
      <point x="256" y="50" type="line"/>
      <point x="256" y="0" type="line"/>
    </contour>
  </outline>
</glyph>
<glyph name="L" format="2">
  <advance width="548"/>
  <unicode hex="004C"/>
  <outline>
    <contour>
      <point x="39" y="50" type="line"/>
      <point x="39" y="0" type="line"/>
      <point x="509" y="0" type="line"/>
      <point x="509" y="152" type="line"/>
      <point x="459" y="152" type="line"/>
      <point x="459" y="51" type="line"/>
      <point x="174" y="51" type="line"/>
      <point x="174" y="700" type="line"/>
      <point x="249" y="700" type="line"/>
      <point x="249" y="750" type="line"/>
      <point x="39" y="750" type="line"/>
      <point x="39" y="700" type="line"/>
      <point x="114" y="700" type="line"/>
      <point x="114" y="50" type="line"/>
    </contour>
  </outline>
</glyph>
<glyph name="M" format="2">
  <advance width="936"/>
  <unicode hex="004D"/>
  <outline>
    <contour>
      <point x="744" y="750" type="line"/>
      <point x="469" y="119" type="line"/>
      <point x="467" y="119" type="line"/>
      <point x="192" y="750" type="line"/>
      <point x="34" y="750" type="line"/>
      <point x="34" y="701" type="line"/>
      <point x="122" y="701" type="line"/>
      <point x="122" y="50" type="line"/>
      <point x="34" y="50" type="line"/>
      <point x="34" y="0" type="line"/>
      <point x="268" y="0" type="line"/>
      <point x="268" y="50" type="line"/>
      <point x="182" y="50" type="line"/>
      <point x="182" y="632" type="line"/>
      <point x="184" y="632" type="line"/>
      <point x="450" y="31" type="line"/>
      <point x="486" y="31" type="line"/>
      <point x="751" y="632" type="line"/>
      <point x="754" y="632" type="line"/>
      <point x="754" y="50" type="line"/>
      <point x="668" y="50" type="line"/>
      <point x="668" y="0" type="line"/>
      <point x="902" y="0" type="line"/>
      <point x="902" y="50" type="line"/>
      <point x="814" y="50" type="line"/>
      <point x="814" y="701" type="line"/>
      <point x="902" y="701" type="line"/>
      <point x="902" y="750" type="line"/>
    </contour>
  </outline>
</glyph>
<glyph name="O" format="2">
  <advance width="812"/>
  <unicode hex="004F"/>
  <guideline x="2910" y="-155" angle="0" identifier="1XSFbINiZp"/>
  <outline>
    <contour>
      <point x="27" y="342" type="line"/>
      <point x="18" y="445"/>
      <point x="48" y="536"/>
      <point x="116" y="617" type="curve"/>
      <point x="183" y="698"/>
      <point x="270" y="743"/>
      <point x="375" y="752" type="curve"/>
      <point x="481" y="761"/>
      <point x="574" y="732"/>
      <point x="655" y="664" type="curve"/>
      <point x="737" y="597"/>
      <point x="781" y="511"/>
      <point x="790" y="408" type="curve"/>
      <point x="799" y="304"/>
      <point x="770" y="212"/>
      <point x="703" y="132" type="curve"/>
      <point x="634" y="51"/>
      <point x="548" y="6"/>
      <point x="442" y="-3" type="curve"/>
      <point x="336" y="-12"/>
      <point x="243" y="17"/>
      <point x="162" y="84" type="curve"/>
      <point x="81" y="152"/>
      <point x="36" y="237"/>
      <point x="27" y="341" type="curve"/>
    </contour>
    <contour>
      <point x="89" y="347" type="line"/>
      <point x="98" y="256"/>
      <point x="135" y="181"/>
      <point x="202" y="124" type="curve"/>
      <point x="269" y="66"/>
      <point x="347" y="41"/>
      <point x="437" y="49" type="curve"/>
      <point x="527" y="57"/>
      <point x="601" y="96"/>
      <point x="656" y="164" type="curve"/>
      <point x="712" y="231"/>
      <point x="736" y="311"/>
      <point x="729" y="402" type="curve"/>
      <point x="721" y="493"/>
      <point x="683" y="568"/>
      <point x="616" y="625" type="curve"/>
      <point x="549" y="682"/>
      <point x="470" y="708"/>
      <point x="379" y="700" type="curve"/>
      <point x="290" y="693"/>
      <point x="216" y="654"/>
      <point x="161" y="586" type="curve"/>
      <point x="106" y="516"/>
      <point x="81" y="437"/>
      <point x="89" y="346" type="curve"/>
    </contour>
  </outline>
</glyph>
<glyph name="P" format="2">
  <advance width="604"/>
  <unicode hex="0050"/>
  <outline>
    <contour>
      <point x="156" y="515" type="curve" smooth="yes"/>
      <point x="158" y="615"/>
      <point x="137" y="697"/>
      <point x="276" y="697" type="curve"/>
      <point x="410" y="697"/>
      <point x="460" y="596"/>
      <point x="460" y="515" type="curve"/>
      <point x="460" y="423"/>
      <point x="410" y="330"/>
      <point x="276" y="330" type="curve"/>
      <point x="183" y="333"/>
      <point x="153" y="369"/>
      <point x="154" y="392" type="curve"/>
      <point x="154" y="412"/>
      <point x="154" y="457"/>
      <point x="154" y="476" type="curve"/>
      <point x="155" y="489"/>
      <point x="156" y="502"/>
    </contour>
    <contour>
      <point x="276" y="282" type="curve"/>
      <point x="428" y="283"/>
      <point x="514" y="387"/>
      <point x="514" y="516" type="curve"/>
      <point x="514" y="651"/>
      <point x="433" y="750"/>
      <point x="276" y="750" type="curve"/>
      <point x="215" y="749"/>
      <point x="178" y="737"/>
      <point x="155" y="717" type="curve"/>
      <point x="155" y="750" type="line"/>
      <point x="29" y="750" type="line"/>
      <point x="29" y="700" type="line"/>
      <point x="103" y="700" type="line"/>
      <point x="103" y="50" type="line"/>
      <point x="29" y="50" type="line"/>
      <point x="29" y="0" type="line"/>
      <point x="236" y="0" type="line"/>
      <point x="236" y="50" type="line"/>
      <point x="236" y="50"/>
      <point x="155" y="50"/>
      <point x="155" y="51" type="curve"/>
      <point x="155" y="85"/>
      <point x="156" y="196"/>
      <point x="155" y="312" type="curve"/>
      <point x="154" y="311"/>
      <point x="214" y="282"/>
    </contour>
  </outline>
</glyph>
<glyph name="Q" format="2">
  <advance width="829"/>
  <unicode hex="0051"/>
  <image fileName="S_creenshot 2025-03-12 at 12.33.04 P_M_.png" xOffset="259" yOffset="1074"/>
  <outline>
    <contour>
      <point x="789" y="383" type="curve"/>
      <point x="788" y="622"/>
      <point x="620" y="757"/>
      <point x="413" y="757" type="curve"/>
      <point x="196" y="757"/>
      <point x="40" y="630"/>
      <point x="40" y="383" type="curve"/>
      <point x="44" y="106"/>
      <point x="192" y="-3"/>
      <point x="414" y="-3" type="curve"/>
      <point x="640" y="-3"/>
      <point x="789" y="106"/>
    </contour>
    <contour>
      <point x="414" y="46" type="curve" smooth="yes"/>
      <point x="213" y="45"/>
      <point x="92" y="164"/>
      <point x="92" y="383" type="curve"/>
      <point x="92" y="594"/>
      <point x="242" y="718"/>
      <point x="414" y="712" type="curve"/>
      <point x="576" y="712"/>
      <point x="742" y="594"/>
      <point x="742" y="383" type="curve"/>
      <point x="733" y="151"/>
      <point x="619" y="47"/>
    </contour>
    <contour>
      <point x="207" y="174" type="move"/>
    </contour>
    <contour>
      <point x="207" y="216" type="move"/>
    </contour>
    <contour>
      <point x="207" y="216" type="curve"/>
      <point x="207" y="171" type="line"/>
      <point x="207" y="171"/>
      <point x="512" y="205"/>
      <point x="499" y="46" type="curve" smooth="yes"/>
      <point x="499" y="46"/>
      <point x="541" y="44"/>
      <point x="541" y="45" type="curve" smooth="yes"/>
      <point x="541" y="150"/>
      <point x="494" y="207"/>
      <point x="294" y="216" type="curve" smooth="yes"/>
      <point x="294" y="216"/>
      <point x="207" y="216"/>
    </contour>
    <contour>
      <point x="287" y="216" type="move"/>
    </contour>
    <contour>
      <point x="748" y="-29" type="move"/>
    </contour>
    <contour>
      <point x="748" y="-72" type="move"/>
    </contour>
    <contour>
      <point x="748" y="-72" type="curve"/>
      <point x="748" y="-29" type="line"/>
      <point x="748" y="-29"/>
      <point x="548" y="-42"/>
      <point x="537" y="98" type="curve" smooth="yes"/>
      <point x="537" y="98"/>
      <point x="508" y="53"/>
      <point x="508" y="52" type="curve" smooth="yes"/>
      <point x="537" y="-34"/>
      <point x="561" y="-53"/>
      <point x="742" y="-72" type="curve" smooth="yes"/>
      <point x="742" y="-72"/>
      <point x="748" y="-72"/>
    </contour>
    <contour>
      <point x="748" y="-29" type="move"/>
    </contour>
  </outline>
</glyph>
<glyph name="R" format="2">
  <advance width="606"/>
  <unicode hex="0052"/>
  <image fileName="R_.png" xScale="3.211625284596118" xyScale="-0.11215242625724973" yxScale="0.11215242625724964" yScale="3.2116252845961153" xOffset="-104.34510651796101" yOffset="-161.56217483502473"/>
  <outline>
    <contour>
      <point x="28" y="750" type="line"/>
      <point x="28" y="698" type="line"/>
      <point x="115" y="698" type="line"/>
      <point x="115" y="49" type="line"/>
      <point x="29" y="49" type="line"/>
      <point x="29" y="0" type="line"/>
      <point x="172" y="0" type="line"/>
      <point x="172" y="750" type="line"/>
    </contour>
    <contour>
      <point x="172" y="750" type="curve"/>
      <point x="172" y="700" type="line"/>
      <point x="271" y="700" type="line"/>
      <point x="271" y="700"/>
      <point x="485" y="724"/>
      <point x="492" y="565" type="curve" smooth="yes"/>
      <point x="499" y="406"/>
      <point x="270" y="424"/>
      <point x="270" y="424" type="curve"/>
      <point x="172" y="424" type="line"/>
      <point x="172" y="375" type="line"/>
      <point x="316" y="375" type="line"/>
      <point x="316" y="375"/>
      <point x="390" y="387"/>
      <point x="432" y="403" type="curve" smooth="yes"/>
      <point x="458" y="413"/>
      <point x="550" y="458"/>
      <point x="548" y="565" type="curve" smooth="yes"/>
      <point x="546" y="688"/>
      <point x="487" y="740"/>
      <point x="267" y="750" type="curve" smooth="yes"/>
      <point x="267" y="750"/>
      <point x="172" y="748"/>
    </contour>
    <contour>
      <point x="172" y="422" type="move"/>
    </contour>
    <contour>
      <point x="259" y="750" type="line"/>
      <point x="115" y="750" type="line"/>
      <point x="115" y="0" type="line"/>
      <point x="258" y="0" type="line"/>
      <point x="258" y="49" type="line"/>
      <point x="172" y="49" type="line"/>
      <point x="172" y="700" type="line"/>
      <point x="259" y="700" type="line"/>
    </contour>
    <contour>
      <point x="172" y="422" type="curve"/>
      <point x="172" y="372" type="line"/>
      <point x="271" y="372" type="line"/>
      <point x="271" y="372"/>
      <point x="468" y="401"/>
      <point x="480" y="247" type="curve" smooth="yes"/>
      <point x="480" y="247"/>
      <point x="480" y="58"/>
      <point x="480" y="58" type="curve"/>
      <point x="480" y="0" type="line"/>
      <point x="622" y="0" type="line"/>
      <point x="622" y="57" type="line"/>
      <point x="622" y="57"/>
      <point x="539" y="57"/>
      <point x="539" y="57" type="curve" smooth="yes"/>
      <point x="541" y="61"/>
      <point x="539" y="233"/>
      <point x="539" y="234" type="curve" smooth="yes"/>
      <point x="539" y="349"/>
      <point x="487" y="412"/>
      <point x="267" y="422" type="curve" smooth="yes"/>
      <point x="267" y="422"/>
      <point x="172" y="420"/>
    </contour>
    <contour>
      <point x="172" y="372" type="move"/>
      <point x="259" y="372" type="line"/>
      <point x="259" y="422" type="line"/>
    </contour>
  </outline>
</glyph>
<glyph name="S" format="2">
  <advance width="658"/>
  <unicode hex="0053"/>
  <outline>
    <contour>
      <point x="64" y="-1" type="line"/>
      <point x="112" y="-1" type="line"/>
      <point x="112" y="244" type="line"/>
      <point x="64" y="244" type="line"/>
    </contour>
    <contour>
      <point x="502" y="553" type="line"/>
      <point x="550" y="553" type="line"/>
      <point x="550" y="748" type="line"/>
      <point x="502" y="748" type="line"/>
    </contour>
    <contour>
      <point x="113" y="125" type="curve" smooth="yes"/>
      <point x="129" y="48"/>
      <point x="249" y="-16"/>
      <point x="353" y="-17" type="curve" smooth="yes"/>
      <point x="457" y="-18"/>
      <point x="594" y="40"/>
      <point x="594" y="191" type="curve" smooth="yes"/>
      <point x="594" y="252"/>
      <point x="576" y="291"/>
      <point x="529" y="323" type="curve"/>
      <point x="514" y="333" type="line"/>
      <point x="495" y="345"/>
      <point x="471" y="356"/>
      <point x="443" y="367" type="curve"/>
      <point x="352" y="407"/>
      <point x="211" y="438"/>
      <point x="177" y="463" type="curve"/>
      <point x="139" y="496"/>
      <point x="112" y="531"/>
      <point x="119" y="563" type="curve"/>
      <point x="119" y="687"/>
      <point x="210" y="716"/>
      <point x="299" y="713" type="curve" smooth="yes"/>
      <point x="388" y="710"/>
      <point x="481" y="655"/>
      <point x="503" y="551" type="curve" smooth="yes"/>
      <point x="503" y="550"/>
      <point x="539" y="611"/>
      <point x="501" y="664" type="curve" smooth="yes"/>
      <point x="463" y="717"/>
      <point x="400" y="760"/>
      <point x="296" y="761" type="curve" smooth="yes"/>
      <point x="192" y="762"/>
      <point x="62" y="719"/>
      <point x="62" y="568" type="curve" smooth="yes"/>
      <point x="62" y="480"/>
      <point x="87" y="442"/>
      <point x="189" y="400" type="curve"/>
      <point x="189" y="400" type="line"/>
      <point x="190" y="400"/>
      <point x="191" y="399"/>
      <point x="192" y="399" type="curve"/>
      <point x="222" y="387"/>
      <point x="259" y="374"/>
      <point x="304" y="360" type="curve" smooth="yes"/>
      <point x="325" y="353"/>
      <point x="339" y="349"/>
      <point x="348" y="347" type="curve"/>
      <point x="407" y="328"/>
      <point x="448" y="312"/>
      <point x="471" y="300" type="curve"/>
      <point x="523" y="273"/>
      <point x="537" y="236"/>
      <point x="537" y="196" type="curve"/>
      <point x="537" y="72"/>
      <point x="439" y="32"/>
      <point x="350" y="35" type="curve" smooth="yes"/>
      <point x="261" y="38"/>
      <point x="148" y="73"/>
      <point x="111" y="238" type="curve" smooth="yes"/>
      <point x="111" y="239"/>
      <point x="100" y="187"/>
    </contour>
  </outline>
</glyph>
<glyph name="T" format="2">
  <advance width="740"/>
  <unicode hex="0054"/>
  <outline>
    <contour>
      <point x="577" y="700" type="line"/>
      <point x="577" y="553" type="line"/>
      <point x="627" y="553" type="line"/>
      <point x="627" y="750" type="line"/>
      <point x="103" y="750" type="line"/>
      <point x="103" y="553" type="line"/>
      <point x="153" y="553" type="line"/>
      <point x="153" y="700" type="line"/>
      <point x="335" y="700" type="line"/>
      <point x="335" y="50" type="line"/>
      <point x="258" y="50" type="line"/>
      <point x="258" y="0" type="line"/>
      <point x="472" y="0" type="line"/>
      <point x="472" y="50" type="line"/>
      <point x="395" y="50" type="line"/>
      <point x="395" y="700" type="line"/>
    </contour>
  </outline>
</glyph>
<glyph name="U" format="2">
  <advance width="682"/>
  <unicode hex="0055"/>
  <outline>
    <contour>
      <point x="341" y="0" type="line"/>
      <point x="590" y="0"/>
      <point x="598" y="198"/>
      <point x="597" y="214" type="curve"/>
      <point x="597" y="699" type="line"/>
      <point x="676" y="699" type="line"/>
      <point x="676" y="750" type="line"/>
      <point x="454" y="750" type="line"/>
      <point x="454" y="700" type="line"/>
      <point x="537" y="700" type="line"/>
      <point x="537" y="212" type="line"/>
      <point x="537" y="108"/>
      <point x="440" y="47"/>
      <point x="341" y="47" type="curve"/>
    </contour>
    <contour>
      <point x="341" y="47" type="curve"/>
      <point x="199" y="47"/>
      <point x="323" y="47"/>
    </contour>
    <contour>
      <point x="341" y="0" type="curve"/>
      <point x="341" y="47" type="line"/>
      <point x="242" y="47"/>
      <point x="145" y="108"/>
      <point x="145" y="212" type="curve"/>
      <point x="145" y="700" type="line"/>
      <point x="228" y="700" type="line"/>
      <point x="228" y="750" type="line"/>
      <point x="6" y="750" type="line"/>
      <point x="6" y="699" type="line"/>
      <point x="85" y="699" type="line"/>
      <point x="85" y="214" type="line"/>
      <point x="84" y="198"/>
      <point x="92" y="0"/>
    </contour>
    <contour>
      <point x="341" y="47" type="curve"/>
      <point x="359" y="47"/>
      <point x="483" y="47"/>
    </contour>
  </outline>
</glyph>
<glyph name="V" format="2">
  <advance width="667"/>
  <unicode hex="0056"/>
  <outline>
    <contour>
      <point x="-11" y="702" type="line"/>
      <point x="-11" y="750" type="line"/>
      <point x="220" y="750" type="line"/>
      <point x="220" y="702" type="line"/>
      <point x="133" y="702" type="line"/>
      <point x="323" y="95" type="line"/>
      <point x="325" y="95" type="line"/>
      <point x="519" y="702" type="line"/>
      <point x="433" y="702" type="line"/>
      <point x="433" y="750" type="line"/>
      <point x="663" y="750" type="line"/>
      <point x="663" y="702" type="line"/>
      <point x="576" y="702" type="line"/>
      <point x="347" y="0" type="line"/>
      <point x="300" y="0" type="line"/>
      <point x="75" y="702" type="line"/>
      <point x="-11" y="702" type="line"/>
    </contour>
  </outline>
</glyph>
<glyph name="W" format="2">
  <advance width="1000"/>
  <unicode hex="0057"/>
  <outline>
    <contour>
      <point x="14" y="701" type="line"/>
      <point x="14" y="751" type="line"/>
      <point x="233" y="751" type="line"/>
      <point x="233" y="701" type="line"/>
      <point x="140" y="701" type="line"/>
      <point x="334" y="86" type="line"/>
      <point x="336" y="86" type="line"/>
      <point x="482" y="701" type="line"/>
      <point x="389" y="701" type="line"/>
      <point x="389" y="751" type="line"/>
      <point x="638" y="751" type="line"/>
      <point x="638" y="701" type="line"/>
      <point x="545" y="701" type="line"/>
      <point x="691" y="86" type="line"/>
      <point x="693" y="86" type="line"/>
      <point x="889" y="701" type="line"/>
      <point x="794" y="701" type="line"/>
      <point x="794" y="751" type="line"/>
      <point x="1014" y="751" type="line"/>
      <point x="1014" y="701" type="line"/>
      <point x="941" y="701" type="line"/>
      <point x="714" y="0" type="line"/>
      <point x="661" y="0" type="line"/>
      <point x="512" y="627" type="line"/>
      <point x="510" y="627" type="line"/>
      <point x="366" y="0" type="line"/>
      <point x="312" y="0" type="line"/>
      <point x="86" y="701" type="line"/>
      <point x="14" y="701" type="line"/>
    </contour>
  </outline>
</glyph>
<glyph name="X" format="2">
  <advance width="667"/>
  <unicode hex="0058"/>
  <outline>
    <contour>
      <point x="248" y="0" type="line"/>
      <point x="6" y="0" type="line"/>
      <point x="6" y="50" type="line"/>
      <point x="97" y="50" type="line"/>
      <point x="313" y="373" type="line"/>
      <point x="313" y="375" type="line"/>
      <point x="97" y="700" type="line"/>
      <point x="6" y="700" type="line"/>
      <point x="6" y="750" type="line"/>
      <point x="253" y="750" type="line"/>
      <point x="253" y="700" type="line"/>
      <point x="163" y="700" type="line"/>
      <point x="344" y="422" type="line"/>
      <point x="346" y="422" type="line"/>
      <point x="531" y="700" type="line"/>
      <point x="441" y="700" type="line"/>
      <point x="441" y="750" type="line"/>
      <point x="686" y="750" type="line"/>
      <point x="686" y="700" type="line"/>
      <point x="594" y="700" type="line"/>
      <point x="378" y="375" type="line"/>
      <point x="378" y="373" type="line"/>
      <point x="592" y="50" type="line"/>
      <point x="686" y="50" type="line"/>
      <point x="686" y="0" type="line"/>
      <point x="438" y="0" type="line"/>
      <point x="438" y="50" type="line"/>
      <point x="526" y="50" type="line"/>
      <point x="346" y="325" type="line"/>
      <point x="344" y="325" type="line"/>
      <point x="159" y="50" type="line"/>
      <point x="248" y="50" type="line"/>
      <point x="248" y="0" type="line"/>
    </contour>
  </outline>
</glyph>
<glyph name="Y" format="2">
  <advance width="703"/>
  <unicode hex="0059"/>
  <outline>
    <contour>
      <point x="3" y="750" type="line"/>
      <point x="3" y="700" type="line"/>
      <point x="89" y="700" type="line"/>
      <point x="311" y="326" type="line"/>
      <point x="311" y="50" type="line"/>
      <point x="225" y="50" type="line"/>
      <point x="225" y="0" type="line"/>
      <point x="458" y="0" type="line"/>
      <point x="458" y="50" type="line"/>
      <point x="372" y="50" type="line"/>
      <point x="372" y="326" type="line"/>
      <point x="603" y="700" type="line"/>
      <point x="689" y="700" type="line"/>
      <point x="689" y="750" type="line"/>
      <point x="456" y="750" type="line"/>
      <point x="456" y="700" type="line"/>
      <point x="541" y="700" type="line"/>
      <point x="343" y="380" type="line"/>
      <point x="340" y="380" type="line"/>
      <point x="151" y="700" type="line"/>
      <point x="236" y="700" type="line"/>
      <point x="236" y="750" type="line"/>
    </contour>
  </outline>
</glyph>
<glyph name="underscore" format="2">
  <advance width="506"/>
  <unicode hex="005F"/>
  <outline>
    <contour>
      <point x="-3" y="0" type="line"/>
      <point x="509" y="0" type="line"/>
      <point x="509" y="38" type="line"/>
      <point x="-3" y="38" type="line"/>
    </contour>
  </outline>
</glyph>
<glyph name="grave" format="2">
  <advance width="278"/>
  <unicode hex="0060"/>
  <outline>
    <contour>
      <point x="152" y="510" type="line"/>
      <point x="202" y="510" type="line"/>
      <point x="91" y="649" type="line"/>
      <point x="14" y="649" type="line"/>
    </contour>
  </outline>
</glyph>
<glyph name="a" format="2">
  <advance width="642"/>
  <unicode hex="0061"/>
  <guideline x="457" y="242" angle="0" identifier="R9v2bfRP2L"/>
  <guideline x="266" y="423" angle="0" identifier="1I7KxtEumO"/>
  <guideline x="322" y="53" angle="0" identifier="8lDfjuSzkt"/>
  <outline>
    <contour>
      <point x="612" y="472" type="line"/>
      <point x="489" y="472" type="line"/>
      <point x="488.01399" y="374" type="line"/>
      <point x="477" y="389"/>
      <point x="465" y="404" type="qcurve" smooth="yes"/>
      <point x="404" y="473"/>
      <point x="191.41326279364864" y="472.6841303937865"/>
      <point x="51" y="334"/>
      <point x="51" y="234" type="qcurve" smooth="yes"/>
      <point x="50" y="133"/>
      <point x="190" y="0"/>
      <point x="298" y="0" type="qcurve" smooth="yes"/>
      <point x="404" y="0"/>
      <point x="465" y="67" type="qcurve" smooth="yes"/>
      <point x="477" y="80"/>
      <point x="486.01399" y="95" type="qcurve"/>
      <point x="487" y="0" type="line"/>
      <point x="612.01399" y="0" type="line"/>
      <point x="612.01399" y="50" type="line"/>
      <point x="546.01399" y="50" type="line"/>
      <point x="546.01399" y="425" type="line"/>
      <point x="611.01399" y="425" type="line"/>
    </contour>
    <contour>
      <point x="486.01399" y="236" type="qcurve" smooth="yes"/>
      <point x="486.01399" y="235" type="line" smooth="yes"/>
      <point x="486.01399" y="149"/>
      <point x="383" y="54"/>
      <point x="300" y="54" type="qcurve" smooth="yes"/>
      <point x="215" y="54"/>
      <point x="110.80817950544511" y="148.27354827089306"/>
      <point x="110.80817950544511" y="319.43495969769583"/>
      <point x="214" y="418"/>
      <point x="298" y="418" type="qcurve" smooth="yes"/>
      <point x="383" y="418"/>
      <point x="486.01399" y="321"/>
    </contour>
    <contour>
      <point x="486.01399" y="95" type="line"/>
      <point x="488.01399" y="374" type="line"/>
    </contour>
  </outline>
</glyph>
<glyph name="b" format="2">
  <advance width="604"/>
  <unicode hex="0062"/>
  <outline>
    <contour>
      <point x="27" y="750" type="line"/>
      <point x="27" y="700" type="line"/>
      <point x="100" y="700" type="line"/>
      <point x="100" y="50" type="line"/>
      <point x="26" y="50" type="line"/>
      <point x="26" y="0" type="line"/>
      <point x="152" y="0" type="line"/>
      <point x="152" y="98" type="line"/>
      <point x="153" y="97"/>
      <point x="154" y="95" type="qcurve"/>
      <point x="163" y="80"/>
      <point x="175" y="67" type="qcurve" smooth="yes"/>
      <point x="236" y="0"/>
      <point x="343" y="0" type="qcurve" smooth="yes"/>
      <point x="451" y="0"/>
      <point x="592" y="134"/>
      <point x="591" y="235" type="qcurve" smooth="yes"/>
      <point x="591" y="336"/>
      <point x="450" y="475"/>
      <point x="236" y="475"/>
      <point x="175" y="406" type="qcurve" smooth="yes"/>
      <point x="163" y="391"/>
      <point x="152" y="374" type="qcurve"/>
      <point x="152" y="750" type="line"/>
    </contour>
    <contour>
      <point x="154" y="236" type="line" smooth="yes"/>
      <point x="154" y="321"/>
      <point x="257" y="420"/>
      <point x="343" y="420" type="qcurve" smooth="yes"/>
      <point x="427" y="420"/>
      <point x="531" y="321"/>
      <point x="531" y="149"/>
      <point x="426" y="54"/>
      <point x="341" y="54" type="qcurve" smooth="yes"/>
      <point x="257" y="54"/>
      <point x="154" y="149"/>
      <point x="154" y="235" type="qcurve" smooth="yes"/>
    </contour>
  </outline>
</glyph>
<glyph name="c" format="2">
  <advance width="547"/>
  <unicode hex="0063"/>
  <outline>
    <contour>
      <point x="503" y="321"/>
      <point x="503" y="321"/>
      <point x="503" y="321" type="curve"/>
      <point x="503" y="477" type="line"/>
      <point x="452" y="477" type="line"/>
      <point x="452" y="411" type="line"/>
      <point x="409" y="456"/>
      <point x="348" y="480"/>
      <point x="280" y="480" type="curve"/>
      <point x="145" y="480"/>
      <point x="46" y="399"/>
      <point x="46" y="242" type="curve"/>
      <point x="48" y="66"/>
      <point x="143" y="-3"/>
      <point x="281" y="-3" type="curve"/>
      <point x="464" y="-3"/>
      <point x="501" y="114"/>
      <point x="501" y="114" type="curve"/>
      <point x="451" y="134" type="line"/>
      <point x="451" y="134"/>
      <point x="423" y="49"/>
      <point x="281" y="49" type="curve" smooth="yes"/>
      <point x="181" y="49"/>
      <point x="99" y="103"/>
      <point x="99" y="242" type="curve"/>
      <point x="99" y="376"/>
      <point x="200" y="426"/>
      <point x="281" y="426" type="curve"/>
      <point x="352" y="426"/>
      <point x="423" y="397"/>
      <point x="452" y="322" type="curve"/>
      <point x="452" y="321"/>
      <point x="502" y="322"/>
      <point x="503" y="321" type="curve" smooth="yes"/>
    </contour>
  </outline>
</glyph>
<glyph name="d" format="2">
  <advance width="600"/>
  <unicode hex="0064"/>
  <outline>
    <contour>
      <point x="389" y="750" type="line"/>
      <point x="389" y="700" type="line"/>
      <point x="462" y="700" type="line"/>
      <point x="462" y="374" type="line"/>
      <point x="451" y="391"/>
      <point x="439" y="406" type="qcurve" smooth="yes"/>
      <point x="378" y="475"/>
      <point x="164" y="475"/>
      <point x="23" y="336"/>
      <point x="23" y="235" type="qcurve" smooth="yes"/>
      <point x="22" y="134"/>
      <point x="163" y="0"/>
      <point x="271" y="0" type="qcurve" smooth="yes"/>
      <point x="378" y="0"/>
      <point x="439" y="67" type="qcurve" smooth="yes"/>
      <point x="451" y="80"/>
      <point x="460" y="95" type="qcurve"/>
      <point x="461" y="97"/>
      <point x="462" y="98" type="qcurve"/>
      <point x="462" y="0" type="line"/>
      <point x="588" y="0" type="line"/>
      <point x="588" y="50" type="line"/>
      <point x="514" y="50" type="line"/>
      <point x="514" y="750" type="line"/>
    </contour>
    <contour>
      <point x="460" y="224" type="line" smooth="yes"/>
      <point x="460" y="218"/>
      <point x="459" y="213" type="qcurve"/>
      <point x="452" y="137"/>
      <point x="352" y="54"/>
      <point x="273" y="54" type="qcurve" smooth="yes"/>
      <point x="188" y="54"/>
      <point x="83" y="149"/>
      <point x="83" y="321"/>
      <point x="187" y="420"/>
      <point x="271" y="420" type="qcurve" smooth="yes"/>
      <point x="351" y="420"/>
      <point x="452" y="333"/>
      <point x="459" y="258" type="qcurve"/>
      <point x="460" y="252"/>
      <point x="460" y="247" type="qcurve" smooth="yes"/>
    </contour>
  </outline>
</glyph>
<glyph name="e" format="2">
  <advance width="518"/>
  <unicode hex="0065"/>
  <guideline x="457" y="242" angle="0" identifier="NPnOIM5Adn"/>
  <guideline x="266" y="423" angle="0" identifier="siwyJF9ESt"/>
  <guideline x="322" y="53" angle="0" identifier="QdRHmAxfq1"/>
  <guideline x="457" y="242" angle="0" identifier="JleYBwMf2b"/>
  <guideline x="266" y="423" angle="0" identifier="T115gpIHRN"/>
  <guideline x="322" y="53" angle="0" identifier="vnSpAyGKc3"/>
  <outline>
    <contour>
      <point x="491" y="221" type="line"/>
      <point x="491" y="221"/>
      <point x="492" y="243"/>
      <point x="492" y="244" type="curve" smooth="yes"/>
      <point x="492" y="397"/>
      <point x="387" y="480"/>
      <point x="258" y="480" type="curve"/>
      <point x="123" y="480"/>
      <point x="26" y="397"/>
      <point x="26" y="242" type="curve"/>
      <point x="28" y="66"/>
      <point x="121" y="-3"/>
      <point x="259" y="-3" type="curve"/>
      <point x="360" y="-3"/>
      <point x="437" y="33"/>
      <point x="472" y="120" type="curve"/>
      <point x="423" y="142" type="line"/>
      <point x="423" y="141"/>
      <point x="422" y="141"/>
      <point x="422" y="140" type="curve" smooth="yes"/>
      <point x="391" y="72"/>
      <point x="328" y="48"/>
      <point x="259" y="49" type="curve" smooth="yes"/>
      <point x="159" y="51"/>
      <point x="83" y="103"/>
      <point x="83" y="221" type="curve"/>
      <point x="438" y="221" type="line"/>
      <point x="438" y="221" type="line"/>
    </contour>
    <contour>
      <point x="259" y="426" type="curve"/>
      <point x="341" y="426"/>
      <point x="436" y="375"/>
      <point x="436" y="267" type="curve"/>
      <point x="83" y="267" type="line"/>
      <point x="83" y="375"/>
      <point x="187" y="426"/>
    </contour>
    <contour>
      <point x="472" y="120" type="line" smooth="yes"/>
      <point x="472" y="120" type="line"/>
      <point x="473" y="119" type="line"/>
    </contour>
  </outline>
</glyph>
<glyph name="f" format="2">
  <advance width="315"/>
  <unicode hex="0066"/>
  <outline>
    <contour>
      <point x="45" y="477" type="line"/>
      <point x="45" y="425" type="line"/>
      <point x="113" y="425" type="line"/>
      <point x="113" y="50" type="line"/>
      <point x="44" y="50" type="line"/>
      <point x="44" y="0" type="line"/>
      <point x="255" y="0" type="line"/>
      <point x="255" y="50" type="line"/>
      <point x="171" y="50" type="line"/>
      <point x="171" y="477" type="line"/>
      <point x="170" y="477"/>
      <point x="111" y="477"/>
      <point x="111" y="477" type="curve"/>
    </contour>
    <contour>
      <point x="170" y="425" type="move"/>
      <point x="240" y="425" type="line"/>
      <point x="240" y="477" type="line"/>
      <point x="170" y="477" type="line"/>
    </contour>
    <contour>
      <point x="341" y="612" type="move"/>
    </contour>
    <contour>
      <point x="341" y="612" type="move"/>
    </contour>
    <contour>
      <point x="299" y="781" type="move"/>
    </contour>
    <contour>
      <point x="299" y="729" type="move"/>
    </contour>
    <contour>
      <point x="299" y="781" type="move"/>
      <point x="161" y="781"/>
      <point x="105" y="799"/>
      <point x="111" y="611" type="curve"/>
      <point x="171" y="611" type="line"/>
      <point x="172" y="748"/>
      <point x="199" y="727"/>
      <point x="299" y="729" type="curve"/>
    </contour>
    <contour>
      <point x="299" y="781" type="line"/>
      <point x="219" y="781" type="line"/>
    </contour>
    <contour>
      <point x="171" y="611" type="line"/>
      <point x="171" y="477" type="line"/>
      <point x="111" y="477" type="line"/>
      <point x="111" y="611" type="line"/>
    </contour>
  </outline>
</glyph>
<glyph name="g" format="2">
  <advance width="599"/>
  <unicode hex="0067"/>
  <guideline x="457" y="242" angle="0" identifier="o7IrRh635w"/>
  <guideline x="266" y="423" angle="0" identifier="SHMEMrTSH1"/>
  <guideline x="322" y="53" angle="0" identifier="hV1424HvcN"/>
  <outline>
    <contour>
      <point x="452" y="427" type="line"/>
      <point x="452" y="432"/>
      <point x="450" y="50"/>
      <point x="450" y="50" type="curve"/>
      <point x="450" y="14" type="line"/>
      <point x="450" y="0" type="line"/>
      <point x="500" y="-1" type="line"/>
      <point x="500" y="15" type="line"/>
      <point x="502" y="427" type="line"/>
    </contour>
    <contour>
      <point x="492" y="242" type="curve"/>
      <point x="489.95349" y="553.06977"/>
      <point x="492" y="66"/>
    </contour>
    <contour>
      <point x="452" y="427" type="line"/>
    </contour>
    <contour>
      <point x="575" y="427" type="move"/>
      <point x="502" y="427" type="line"/>
    </contour>
    <contour>
      <point x="502" y="477" type="move"/>
      <point x="452" y="427" type="line"/>
      <point x="502" y="427" type="line"/>
    </contour>
    <contour>
      <point x="502" y="427" type="line"/>
      <point x="502" y="477" type="line"/>
    </contour>
    <contour>
      <point x="452" y="427" type="move"/>
    </contour>
    <contour>
      <point x="502" y="427" type="line"/>
    </contour>
    <contour>
      <point x="452" y="427" type="move"/>
    </contour>
    <contour>
      <point x="502" y="427" type="move"/>
      <point x="575" y="427" type="line"/>
      <point x="575" y="477" type="line"/>
      <point x="452" y="477" type="line"/>
    </contour>
    <contour>
      <point x="452" y="427" type="line"/>
      <point x="574" y="427" type="line"/>
      <point x="575" y="477" type="line"/>
      <point x="452" y="477" type="line"/>
    </contour>
    <contour>
      <point x="450" y="50" type="move"/>
      <point x="450" y="0" type="line"/>
    </contour>
    <contour>
      <point x="458" y="186" type="curve"/>
      <point x="458" y="191"/>
      <point x="458" y="186"/>
    </contour>
    <contour>
      <point x="458" y="186" type="line"/>
    </contour>
    <contour>
      <point x="458" y="186" type="move"/>
    </contour>
    <contour>
      <point x="458" y="186" type="move"/>
    </contour>
    <contour>
      <point x="458" y="186" type="move"/>
    </contour>
    <contour>
      <point x="458" y="236" type="move"/>
    </contour>
    <contour>
      <point x="458" y="186" type="line"/>
      <point x="458" y="236" type="line"/>
    </contour>
    <contour>
      <point x="261" y="-207" type="move"/>
    </contour>
    <contour>
      <point x="261" y="-155" type="move"/>
    </contour>
    <contour>
      <point x="452" y="374" type="line"/>
      <point x="441" y="391"/>
      <point x="429" y="406" type="qcurve" smooth="yes"/>
      <point x="368" y="475"/>
      <point x="154" y="475"/>
      <point x="13" y="336"/>
      <point x="13" y="235" type="qcurve" smooth="yes"/>
      <point x="12" y="134"/>
      <point x="153" y="0"/>
      <point x="261" y="0" type="qcurve" smooth="yes"/>
      <point x="368" y="0"/>
      <point x="429" y="67" type="qcurve" smooth="yes"/>
      <point x="441" y="80"/>
      <point x="450" y="95" type="qcurve"/>
    </contour>
    <contour>
      <point x="450" y="236" type="qcurve" smooth="yes"/>
      <point x="450" y="235" type="line" smooth="yes"/>
      <point x="450" y="149"/>
      <point x="347" y="54"/>
      <point x="263" y="54" type="qcurve" smooth="yes"/>
      <point x="178" y="54"/>
      <point x="73" y="149"/>
      <point x="73" y="321"/>
      <point x="177" y="420"/>
      <point x="261" y="420" type="qcurve" smooth="yes"/>
      <point x="347" y="420"/>
      <point x="450" y="321"/>
    </contour>
    <contour>
      <point x="450" y="95" type="line"/>
      <point x="452" y="374" type="line"/>
    </contour>
    <contour>
      <point x="74" y="-45" type="line"/>
      <point x="25" y="-68" type="line"/>
    </contour>
    <contour>
      <point x="263" y="-155" type="line"/>
      <point x="262" y="-155"/>
      <point x="262" y="-155"/>
      <point x="261" y="-155" type="curve" smooth="yes"/>
      <point x="184" y="-153"/>
      <point x="101" y="-122"/>
      <point x="74" y="-45" type="curve"/>
      <point x="25" y="-68" type="line"/>
      <point x="58" y="-166"/>
      <point x="155" y="-207"/>
      <point x="261" y="-207" type="curve"/>
      <point x="262" y="-207"/>
      <point x="262" y="-207"/>
      <point x="263" y="-207" type="curve"/>
    </contour>
    <contour>
      <point x="478" y="238"/>
      <point x="476" y="266"/>
      <point x="450" y="14" type="curve" smooth="yes"/>
      <point x="450" y="10"/>
      <point x="450" y="5"/>
      <point x="450" y="1" type="curve"/>
      <point x="445" y="-145"/>
      <point x="358" y="-157"/>
      <point x="263" y="-155" type="curve"/>
      <point x="263" y="-207" type="line"/>
      <point x="402" y="-207"/>
      <point x="500" y="-174"/>
      <point x="500" y="1" type="curve"/>
      <point x="500" y="6"/>
      <point x="498" y="10"/>
      <point x="498" y="15" type="curve" smooth="yes"/>
    </contour>
  </outline>
</glyph>
<glyph name="h" format="2">
  <advance width="594"/>
  <unicode hex="0068"/>
  <outline>
    <contour>
      <point x="35" y="749" type="line"/>
      <point x="35" y="689" type="line"/>
      <point x="108" y="689" type="line"/>
      <point x="108" y="57" type="line"/>
      <point x="34" y="57" type="line"/>
      <point x="34" y="0" type="line"/>
      <point x="245" y="0" type="line"/>
      <point x="245" y="57" type="line"/>
      <point x="168" y="57" type="line"/>
      <point x="168" y="301" type="line"/>
      <point x="168" y="301"/>
      <point x="236" y="456"/>
      <point x="368" y="420" type="curve" smooth="yes"/>
      <point x="431" y="403"/>
      <point x="435" y="332"/>
      <point x="435" y="332" type="curve"/>
      <point x="435" y="57" type="line"/>
      <point x="358" y="57" type="line"/>
      <point x="358" y="0" type="line"/>
      <point x="566" y="0" type="line"/>
      <point x="566" y="57" type="line"/>
      <point x="495" y="57" type="line"/>
      <point x="495" y="350" type="line"/>
      <point x="495" y="350"/>
      <point x="476" y="477"/>
      <point x="322" y="477" type="curve"/>
      <point x="210" y="477"/>
      <point x="166" y="383"/>
      <point x="166" y="383" type="curve"/>
      <point x="166" y="749" type="line"/>
    </contour>
  </outline>
</glyph>
<glyph name="i" format="2">
  <advance width="297"/>
  <unicode hex="0069"/>
  <outline>
    <contour>
      <point x="36" y="0" type="line"/>
      <point x="262" y="0" type="line"/>
      <point x="262" y="51" type="line"/>
      <point x="179" y="51" type="line"/>
      <point x="179" y="475" type="line"/>
      <point x="36" y="475" type="line"/>
      <point x="36" y="423" type="line"/>
      <point x="119" y="423" type="line"/>
      <point x="119" y="51" type="line"/>
      <point x="36" y="51" type="line"/>
    </contour>
    <contour>
      <point x="139" y="614" type="curve" smooth="yes"/>
      <point x="166" y="614"/>
      <point x="188" y="637"/>
      <point x="188" y="666" type="curve" smooth="yes"/>
      <point x="188" y="694"/>
      <point x="166" y="718"/>
      <point x="139" y="718" type="curve" smooth="yes"/>
      <point x="110" y="718"/>
      <point x="88" y="694"/>
      <point x="88" y="666" type="curve" smooth="yes"/>
      <point x="88" y="637"/>
      <point x="110" y="614"/>
    </contour>
  </outline>
</glyph>
<glyph name="j" format="2">
  <advance width="219"/>
  <unicode hex="006A"/>
  <outline>
    <contour>
      <point x="-4" y="475" type="line"/>
      <point x="150" y="475" type="line"/>
      <point x="150" y="7" type="line"/>
      <point x="150" y="-100"/>
      <point x="55" y="-197"/>
      <point x="1" y="-211" type="qcurve"/>
      <point x="-5" y="-212"/>
      <point x="-17" y="-214"/>
      <point x="-23" y="-215" type="qcurve"/>
      <point x="-23" y="-162" type="line"/>
      <point x="55" y="-146"/>
      <point x="93" y="-46"/>
      <point x="93" y="9" type="qcurve"/>
      <point x="93" y="425" type="line"/>
      <point x="-4" y="425" type="line"/>
      <point x="-4" y="475" type="line"/>
    </contour>
    <contour>
      <point x="90" y="619" type="line"/>
      <point x="90" y="749" type="line"/>
      <point x="146" y="749" type="line"/>
      <point x="146" y="619" type="line"/>
      <point x="90" y="619" type="line"/>
    </contour>
  </outline>
</glyph>
<glyph name="k" format="2">
  <advance width="560"/>
  <unicode hex="006B"/>
  <outline>
    <contour>
      <point x="166" y="215" type="curve"/>
      <point x="166" y="215"/>
      <point x="166" y="223"/>
      <point x="166" y="223" type="curve"/>
      <point x="170" y="226" type="line"/>
      <point x="443" y="426" type="line"/>
      <point x="514" y="428" type="line"/>
      <point x="514" y="478" type="line"/>
      <point x="316" y="478" type="line"/>
      <point x="316" y="428" type="line"/>
      <point x="373" y="428" type="line"/>
      <point x="170" y="284" type="line"/>
      <point x="167" y="282" type="line"/>
      <point x="167" y="282"/>
      <point x="166" y="215"/>
    </contour>
    <contour>
      <point x="175" y="220" type="line"/>
      <point x="210" y="190"/>
      <point x="375" y="50"/>
      <point x="375" y="50" type="curve"/>
      <point x="318" y="50" type="line"/>
      <point x="318" y="0" type="line"/>
      <point x="516" y="0" type="line"/>
      <point x="516" y="50" type="line"/>
      <point x="445" y="52" type="line"/>
      <point x="445" y="52"/>
      <point x="283" y="187"/>
      <point x="207" y="250" type="curve"/>
    </contour>
    <contour>
      <point x="45" y="749" type="line"/>
      <point x="45" y="697" type="line"/>
      <point x="118" y="697" type="line"/>
      <point x="118" y="50" type="line"/>
      <point x="44" y="50" type="line"/>
      <point x="44" y="0" type="line"/>
      <point x="255" y="0" type="line"/>
      <point x="255" y="50" type="line"/>
      <point x="170" y="50" type="line"/>
      <point x="168" y="221" type="line"/>
      <point x="168" y="225" type="line"/>
      <point x="168" y="225"/>
      <point x="169" y="225"/>
      <point x="170" y="224" type="curve" smooth="yes"/>
      <point x="171" y="223"/>
      <point x="173" y="222"/>
      <point x="175" y="220" type="curve"/>
      <point x="203" y="250" type="line"/>
      <point x="184" y="266"/>
      <point x="174" y="277"/>
      <point x="170" y="281" type="curve" smooth="yes"/>
      <point x="169" y="282"/>
      <point x="168" y="282"/>
      <point x="168" y="282" type="curve"/>
      <point x="168" y="290" type="line"/>
      <point x="168" y="295" type="line"/>
      <point x="168" y="749" type="line"/>
    </contour>
  </outline>
</glyph>
<glyph name="l" format="2">
  <advance width="284"/>
  <unicode hex="006C"/>
  <outline>
    <contour>
      <point x="38" y="749" type="line"/>
      <point x="38" y="697" type="line"/>
      <point x="113" y="697" type="line"/>
      <point x="113" y="50" type="line"/>
      <point x="36" y="50" type="line"/>
      <point x="36" y="0" type="line"/>
      <point x="249" y="0" type="line"/>
      <point x="249" y="50" type="line"/>
      <point x="172" y="50" type="line"/>
      <point x="172" y="50"/>
      <point x="172" y="749"/>
      <point x="172" y="749" type="curve"/>
    </contour>
  </outline>
</glyph>
<glyph name="m" format="2">
  <advance width="931"/>
  <unicode hex="006D"/>
  <outline>
    <contour>
      <point x="46" y="477" type="line"/>
      <point x="46" y="425" type="line"/>
      <point x="119" y="425" type="line"/>
      <point x="119" y="50" type="line"/>
      <point x="45" y="50" type="line"/>
      <point x="45" y="0" type="line"/>
      <point x="256" y="0" type="line"/>
      <point x="256" y="50" type="line"/>
      <point x="179" y="50" type="line"/>
      <point x="179" y="301" type="line"/>
      <point x="179" y="301"/>
      <point x="247" y="455"/>
      <point x="379" y="419" type="curve" smooth="yes"/>
      <point x="442" y="402"/>
      <point x="443" y="332"/>
      <point x="443" y="332" type="curve"/>
      <point x="443" y="50" type="line"/>
      <point x="369" y="50" type="line"/>
      <point x="369" y="0" type="line"/>
      <point x="580" y="0" type="line"/>
      <point x="580" y="50" type="line"/>
      <point x="498" y="50" type="line"/>
      <point x="498" y="309" type="line"/>
      <point x="513" y="336"/>
      <point x="586" y="449"/>
      <point x="703" y="417" type="curve" smooth="yes"/>
      <point x="766" y="400"/>
      <point x="762" y="332"/>
      <point x="762" y="332" type="curve"/>
      <point x="762" y="50" type="line"/>
      <point x="693" y="50" type="line"/>
      <point x="693" y="0" type="line"/>
      <point x="901" y="0" type="line"/>
      <point x="901" y="50" type="line"/>
      <point x="822" y="50" type="line"/>
      <point x="822" y="347" type="line"/>
      <point x="822" y="347"/>
      <point x="808" y="477"/>
      <point x="654" y="477" type="curve"/>
      <point x="554" y="477"/>
      <point x="502" y="391"/>
      <point x="492" y="374" type="curve"/>
      <point x="479" y="411"/>
      <point x="442" y="477"/>
      <point x="333" y="477" type="curve"/>
      <point x="221" y="477"/>
      <point x="177" y="375"/>
      <point x="177" y="375" type="curve"/>
      <point x="177" y="477" type="line"/>
    </contour>
  </outline>
</glyph>
<glyph name="n" format="2">
  <advance width="597"/>
  <unicode hex="006E"/>
  <outline>
    <contour>
      <point x="34" y="476" type="line"/>
      <point x="34" y="425" type="line"/>
      <point x="107" y="425" type="line"/>
      <point x="107" y="50" type="line"/>
      <point x="34" y="50" type="line"/>
      <point x="34" y="0" type="line"/>
      <point x="236" y="0" type="line"/>
      <point x="236" y="50" type="line"/>
      <point x="167" y="50" type="line"/>
      <point x="167" y="301" type="line"/>
      <point x="167" y="301"/>
      <point x="243" y="456"/>
      <point x="375" y="420" type="curve" smooth="yes"/>
      <point x="438" y="403"/>
      <point x="434" y="332"/>
      <point x="434" y="332" type="curve"/>
      <point x="434" y="50" type="line"/>
      <point x="365" y="50" type="line"/>
      <point x="365" y="0" type="line"/>
      <point x="567" y="0" type="line"/>
      <point x="567" y="50" type="line"/>
      <point x="494" y="50" type="line"/>
      <point x="494" y="350" type="line"/>
      <point x="494" y="350"/>
      <point x="483" y="477"/>
      <point x="329" y="477" type="curve"/>
      <point x="217" y="477"/>
      <point x="165" y="373"/>
      <point x="165" y="373" type="curve"/>
      <point x="165" y="476" type="line"/>
    </contour>
  </outline>
</glyph>
<glyph name="o" format="2">
  <advance width="518"/>
  <unicode hex="006F"/>
  <guideline x="457" y="242" angle="0" identifier="NPnOIM5Adn"/>
  <guideline x="266" y="423" angle="0" identifier="siwyJF9ESt"/>
  <guideline x="322" y="53" angle="0" identifier="QdRHmAxfq1"/>
  <outline>
    <contour>
      <point x="492" y="242" type="curve"/>
      <point x="491" y="394"/>
      <point x="387" y="477"/>
      <point x="258" y="477" type="curve"/>
      <point x="123" y="477"/>
      <point x="26" y="399"/>
      <point x="26" y="242" type="curve"/>
      <point x="28" y="53"/>
      <point x="121" y="0"/>
      <point x="259" y="0" type="curve"/>
      <point x="399" y="0"/>
      <point x="492" y="53"/>
    </contour>
    <contour>
      <point x="259" y="52" type="curve" smooth="yes"/>
      <point x="208" y="52"/>
      <point x="77" y="53"/>
      <point x="77" y="242" type="curve"/>
      <point x="77" y="376"/>
      <point x="178" y="423"/>
      <point x="259" y="423" type="curve"/>
      <point x="351" y="423"/>
      <point x="444" y="376"/>
      <point x="444" y="242" type="curve"/>
      <point x="439" y="65"/>
      <point x="315" y="52"/>
    </contour>
  </outline>
</glyph>
<glyph name="p" format="2">
  <advance width="651"/>
  <unicode hex="0070"/>
  <guideline x="457" y="242" angle="0" identifier="Hx7MNIQEiZ"/>
  <guideline x="266" y="423" angle="0" identifier="eg6jxBmXCY"/>
  <guideline x="322" y="53" angle="0" identifier="XXKJKh9C5d"/>
  <outline>
    <contour>
      <point x="34" y="-215" type="line"/>
      <point x="231" y="-215" type="line"/>
      <point x="231" y="-165" type="line"/>
      <point x="157" y="-165" type="line"/>
      <point x="157" y="97" type="line"/>
      <point x="167" y="81"/>
      <point x="182" y="67" type="qcurve" smooth="yes"/>
      <point x="244" y="0"/>
      <point x="352" y="0" type="qcurve" smooth="yes"/>
      <point x="459" y="0"/>
      <point x="530" y="67" type="qcurve" smooth="yes"/>
      <point x="601" y="134"/>
      <point x="601" y="235" type="qcurve"/>
      <point x="601" y="235"/>
      <point x="601" y="235" type="qcurve"/>
      <point x="601" y="236" type="line"/>
      <point x="601" y="236"/>
      <point x="601" y="235" type="qcurve"/>
      <point x="601" y="336"/>
      <point x="530" y="406" type="qcurve" smooth="yes"/>
      <point x="459" y="475"/>
      <point x="245" y="475"/>
      <point x="183" y="406" type="qcurve" smooth="yes"/>
      <point x="169" y="391"/>
      <point x="159" y="375" type="qcurve"/>
      <point x="159" y="427" type="line"/>
      <point x="159" y="477" type="line"/>
      <point x="33" y="477" type="line"/>
      <point x="33" y="427" type="line"/>
      <point x="98" y="427" type="line"/>
      <point x="98" y="-165" type="line"/>
      <point x="34" y="-165" type="line"/>
    </contour>
    <contour>
      <point x="541" y="236" type="qcurve" smooth="yes"/>
      <point x="541" y="235" type="line" smooth="yes"/>
      <point x="541" y="149"/>
      <point x="438" y="54"/>
      <point x="354" y="54" type="qcurve" smooth="yes"/>
      <point x="269" y="54"/>
      <point x="164" y="149"/>
      <point x="164" y="321"/>
      <point x="268" y="420"/>
      <point x="352" y="420" type="qcurve" smooth="yes"/>
      <point x="438" y="420"/>
      <point x="541" y="321"/>
    </contour>
  </outline>
</glyph>
<glyph name="q" format="2">
  <advance width="618"/>
  <unicode hex="0071"/>
  <outline>
    <contour>
      <point x="613.01399" y="-165" type="line"/>
      <point x="544.01399" y="-165" type="line"/>
      <point x="544.01399" y="425" type="line"/>
      <point x="610.01399" y="425" type="line"/>
      <point x="610.01399" y="477" type="line"/>
      <point x="487.01399" y="477" type="line"/>
      <point x="487.01399" y="374" type="line"/>
      <point x="476.01399" y="391"/>
      <point x="464.01399" y="406" type="qcurve" smooth="yes"/>
      <point x="403.01399" y="475"/>
      <point x="189.01399" y="475"/>
      <point x="48.01399" y="336"/>
      <point x="48.01399" y="235" type="qcurve" smooth="yes"/>
      <point x="47.01399" y="134"/>
      <point x="188.01399" y="0"/>
      <point x="296.01399" y="0" type="qcurve" smooth="yes"/>
      <point x="403.01399" y="0"/>
      <point x="464.01399" y="67" type="qcurve" smooth="yes"/>
      <point x="476.01399" y="80"/>
      <point x="485.01399" y="95" type="qcurve"/>
      <point x="485.01399" y="-165" type="line"/>
      <point x="416.01399" y="-165" type="line"/>
      <point x="416.01399" y="-215" type="line"/>
      <point x="613.01399" y="-215" type="line"/>
    </contour>
    <contour>
      <point x="485.01399" y="236" type="qcurve" smooth="yes"/>
      <point x="485.01399" y="235" type="line" smooth="yes"/>
      <point x="485.01399" y="149"/>
      <point x="382.01399" y="54"/>
      <point x="298.01399" y="54" type="qcurve" smooth="yes"/>
      <point x="213.01399" y="54"/>
      <point x="108.01399" y="149"/>
      <point x="108.01399" y="321"/>
      <point x="212.01399" y="420"/>
      <point x="296.01399" y="420" type="qcurve" smooth="yes"/>
      <point x="382.01399" y="420"/>
      <point x="485.01399" y="321"/>
    </contour>
    <contour>
      <point x="488.01399" y="373" type="qcurve"/>
      <point x="487.01399" y="374" type="line"/>
      <point x="487.01399" y="373"/>
    </contour>
  </outline>
</glyph>
<glyph name="r" format="2">
  <advance width="406"/>
  <unicode hex="0072"/>
  <image fileName="r small.png" xScale="4.8814495649660685" yScale="4.881449564966074" xOffset="-33.006644532588076" yOffset="-91.47906542301247"/>
  <outline>
    <contour>
      <point x="46" y="477" type="line"/>
      <point x="46" y="425" type="line"/>
      <point x="121" y="425" type="line"/>
      <point x="121" y="50" type="line"/>
      <point x="45" y="50" type="line"/>
      <point x="45" y="0" type="line"/>
      <point x="257" y="0" type="line"/>
      <point x="257" y="50" type="line"/>
      <point x="181" y="50" type="line"/>
      <point x="181" y="341" type="line"/>
      <point x="181" y="341"/>
      <point x="233" y="461"/>
      <point x="311" y="428" type="curve" smooth="yes"/>
      <point x="341" y="415"/>
      <point x="350" y="375"/>
      <point x="350" y="375" type="curve"/>
      <point x="397" y="387" type="line"/>
      <point x="397" y="387"/>
      <point x="388" y="482"/>
      <point x="300" y="487" type="curve"/>
      <point x="212" y="491"/>
      <point x="179" y="425"/>
      <point x="179" y="425" type="curve"/>
      <point x="179" y="477" type="line"/>
    </contour>
  </outline>
</glyph>
<glyph name="t" format="2">
  <advance width="330"/>
  <unicode hex="0074"/>
  <outline>
    <contour>
      <point x="177" y="751" type="line"/>
      <point x="177" y="751" type="line"/>
      <point x="177" y="701" type="line"/>
      <point x="177" y="701" type="line"/>
      <point x="177" y="476" type="line"/>
      <point x="287" y="476" type="line"/>
      <point x="287" y="426" type="line"/>
      <point x="177" y="426" type="line"/>
      <point x="177" y="123" type="line"/>
      <point x="177" y="70"/>
      <point x="225" y="52"/>
      <point x="275" y="51" type="qcurve"/>
      <point x="294" y="51" type="line"/>
      <point x="294" y="0" type="line"/>
      <point x="255" y="1" type="line"/>
      <point x="245" y="1"/>
      <point x="220" y="3"/>
      <point x="207" y="6" type="qcurve"/>
      <point x="175" y="13"/>
      <point x="119" y="61"/>
      <point x="119" y="116" type="qcurve"/>
      <point x="119" y="426" type="line"/>
      <point x="19" y="426" type="line"/>
      <point x="19" y="476" type="line"/>
      <point x="119" y="476" type="line"/>
      <point x="119" y="701" type="line"/>
      <point x="118" y="701" type="line"/>
      <point x="118" y="751" type="line"/>
    </contour>
  </outline>
</glyph>
<glyph name="u" format="2">
  <advance width="561"/>
  <unicode hex="0075"/>
  <outline>
    <contour>
      <point x="547" y="0" type="line"/>
      <point x="547" y="50" type="line"/>
      <point x="474" y="50" type="line"/>
      <point x="474" y="425" type="line"/>
      <point x="474" y="425" type="line"/>
      <point x="474" y="475" type="line"/>
      <point x="345" y="475" type="line"/>
      <point x="345" y="425" type="line"/>
      <point x="414" y="425" type="line"/>
      <point x="414" y="174" type="line"/>
      <point x="414" y="174"/>
      <point x="338" y="19"/>
      <point x="206" y="55" type="curve" smooth="yes"/>
      <point x="143" y="72"/>
      <point x="147" y="143"/>
      <point x="147" y="143" type="curve"/>
      <point x="147" y="425" type="line"/>
      <point x="147" y="425" type="line"/>
      <point x="147" y="475" type="line"/>
      <point x="14" y="475" type="line"/>
      <point x="14" y="425" type="line"/>
      <point x="87" y="425" type="line"/>
      <point x="87" y="125" type="line"/>
      <point x="87" y="125"/>
      <point x="98" y="-2"/>
      <point x="252" y="-2" type="curve"/>
      <point x="364" y="-2"/>
      <point x="416" y="107"/>
      <point x="416" y="107" type="curve"/>
      <point x="416" y="0" type="line"/>
    </contour>
  </outline>
</glyph>
<glyph name="v" format="2">
  <advance width="570"/>
  <unicode hex="0076"/>
  <outline>
    <contour>
      <point x="269" y="0" type="line"/>
      <point x="84" y="429" type="line"/>
      <point x="10" y="429" type="line"/>
      <point x="10" y="475" type="line"/>
      <point x="217" y="475" type="line"/>
      <point x="217" y="429" type="line"/>
      <point x="137" y="429" type="line"/>
      <point x="290" y="77" type="line"/>
      <point x="435" y="429" type="line"/>
      <point x="346" y="429" type="line"/>
      <point x="346" y="475" type="line"/>
      <point x="560" y="475" type="line"/>
      <point x="560" y="429" type="line"/>
      <point x="486" y="429" type="line"/>
      <point x="310" y="0" type="line"/>
      <point x="269" y="0" type="line"/>
    </contour>
  </outline>
</glyph>
<glyph name="w" format="2">
  <advance width="856"/>
  <unicode hex="0077"/>
  <outline>
    <contour>
      <point x="427" y="390" type="line"/>
      <point x="307" y="0" type="line"/>
      <point x="266" y="0" type="line"/>
      <point x="104" y="428" type="line"/>
      <point x="22" y="428" type="line"/>
      <point x="22" y="475" type="line"/>
      <point x="242" y="475" type="line"/>
      <point x="242" y="428" type="line"/>
      <point x="153" y="428" type="line"/>
      <point x="285" y="77" type="line"/>
      <point x="287" y="77" type="line"/>
      <point x="392" y="428" type="line"/>
      <point x="306" y="428" type="line"/>
      <point x="306" y="475" type="line"/>
      <point x="550" y="475" type="line"/>
      <point x="550" y="428" type="line"/>
      <point x="464" y="428" type="line"/>
      <point x="568" y="77" type="line"/>
      <point x="570" y="77" type="line"/>
      <point x="705" y="428" type="line"/>
      <point x="616" y="428" type="line"/>
      <point x="616" y="475" type="line"/>
      <point x="834" y="475" type="line"/>
      <point x="834" y="428" type="line"/>
      <point x="752" y="428" type="line"/>
      <point x="589" y="0" type="line"/>
      <point x="548" y="0" type="line"/>
      <point x="429" y="390" type="line"/>
      <point x="427" y="390" type="line"/>
    </contour>
  </outline>
</glyph>
<glyph name="x" format="2">
  <advance width="500"/>
  <unicode hex="0078"/>
  <outline>
    <contour>
      <point x="211" y="0" type="line"/>
      <point x="6" y="0" type="line"/>
      <point x="6" y="47" type="line"/>
      <point x="76" y="47" type="line"/>
      <point x="232" y="245" type="line"/>
      <point x="96" y="428" type="line"/>
      <point x="19" y="428" type="line"/>
      <point x="19" y="475" type="line"/>
      <point x="224" y="475" type="line"/>
      <point x="224" y="428" type="line"/>
      <point x="157" y="428" type="line"/>
      <point x="261" y="285" type="line"/>
      <point x="378" y="428" type="line"/>
      <point x="309" y="428" type="line"/>
      <point x="309" y="475" type="line"/>
      <point x="517" y="475" type="line"/>
      <point x="517" y="428" type="line"/>
      <point x="441" y="428" type="line"/>
      <point x="289" y="245" type="line"/>
      <point x="438" y="47" type="line"/>
      <point x="517" y="47" type="line"/>
      <point x="517" y="0" type="line"/>
      <point x="309" y="0" type="line"/>
      <point x="309" y="47" type="line"/>
      <point x="380" y="47" type="line"/>
      <point x="261" y="208" type="line"/>
      <point x="136" y="47" type="line"/>
      <point x="211" y="47" type="line"/>
      <point x="211" y="0" type="line"/>
    </contour>
  </outline>
</glyph>
<glyph name="y" format="2">
  <advance width="563"/>
  <unicode hex="0079"/>
  <outline>
    <contour>
      <point x="554" y="426" type="line"/>
      <point x="478" y="426" type="line"/>
      <point x="197" y="-157" type="line"/>
      <point x="280" y="-157" type="line"/>
      <point x="280" y="-205" type="line"/>
      <point x="58" y="-205" type="line"/>
      <point x="58" y="-157" type="line"/>
      <point x="143" y="-157" type="line"/>
      <point x="235" y="37" type="line"/>
      <point x="49" y="426" type="line"/>
      <point x="-29" y="426" type="line"/>
      <point x="-29" y="475" type="line"/>
      <point x="183" y="475" type="line"/>
      <point x="183" y="426" type="line"/>
      <point x="104" y="426" type="line"/>
      <point x="259" y="85" type="line"/>
      <point x="423" y="426" type="line"/>
      <point x="338" y="426" type="line"/>
      <point x="338" y="475" type="line"/>
      <point x="554" y="475" type="line"/>
      <point x="554" y="426" type="line"/>
    </contour>
  </outline>
</glyph>
<glyph name="z" format="2">
  <advance width="481"/>
  <unicode hex="007A"/>
  <outline>
    <contour>
      <point x="437" y="420" type="line"/>
      <point x="115" y="55" type="line"/>
      <point x="390" y="55" type="line"/>
      <point x="390" y="136" type="line"/>
      <point x="442" y="136" type="line"/>
      <point x="442" y="0" type="line"/>
      <point x="40" y="0" type="line"/>
      <point x="40" y="54" type="line"/>
      <point x="356" y="420" type="line"/>
      <point x="100" y="420" type="line"/>
      <point x="100" y="344" type="line"/>
      <point x="47" y="344" type="line"/>
      <point x="47" y="475" type="line"/>
      <point x="437" y="475" type="line"/>
      <point x="437" y="420" type="line"/>
    </contour>
  </outline>
</glyph>
<glyph name="braceleft" format="2">
  <advance width="333"/>
  <unicode hex="007B"/>
  <outline>
    <contour>
      <point x="70" y="366" type="line"/>
      <point x="70" y="354" type="line"/>
    </contour>
    <contour>
      <point x="137" y="76" type="line" smooth="yes"/>
      <point x="137" y="-40"/>
      <point x="192" y="-60"/>
      <point x="272" y="-60" type="curve"/>
      <point x="272" y="-39" type="line"/>
      <point x="207" y="-24"/>
      <point x="189" y="4"/>
      <point x="189" y="71" type="curve" smooth="yes"/>
      <point x="189" y="235" type="line" smooth="yes"/>
      <point x="189" y="304"/>
      <point x="177" y="343"/>
      <point x="108" y="359" type="curve"/>
      <point x="108" y="361" type="line"/>
      <point x="177" y="378"/>
      <point x="189" y="417"/>
      <point x="189" y="486" type="curve" smooth="yes"/>
      <point x="189" y="650" type="line" smooth="yes"/>
      <point x="189" y="717"/>
      <point x="207" y="745"/>
      <point x="272" y="760" type="curve"/>
      <point x="272" y="781" type="line"/>
      <point x="192" y="781"/>
      <point x="137" y="761"/>
      <point x="137" y="645" type="curve" smooth="yes"/>
      <point x="137" y="472" type="line" smooth="yes"/>
      <point x="137" y="412"/>
      <point x="124" y="384"/>
      <point x="70" y="366" type="curve"/>
      <point x="70" y="354" type="line"/>
      <point x="124" y="337"/>
      <point x="137" y="309"/>
      <point x="137" y="249" type="curve" smooth="yes"/>
    </contour>
  </outline>
</glyph>
<glyph name="braceright" format="2">
  <advance width="328"/>
  <unicode hex="007D"/>
  <outline>
    <contour>
      <point x="57" y="-200" type="line"/>
      <point x="188" y="-197"/>
      <point x="237" y="-134"/>
      <point x="237" y="-47" type="curve" smooth="yes"/>
      <point x="237" y="5"/>
      <point x="220" y="34"/>
      <point x="171" y="85" type="curve" smooth="yes"/>
      <point x="145" y="112"/>
      <point x="142" y="138"/>
      <point x="142" y="168" type="curve" smooth="yes"/>
      <point x="142" y="224"/>
      <point x="193" y="257"/>
      <point x="257" y="257" type="curve" smooth="yes"/>
      <point x="271" y="257" type="line"/>
      <point x="271" y="305" type="line"/>
      <point x="257" y="305" type="line" smooth="yes"/>
      <point x="193" y="305"/>
      <point x="142" y="338"/>
      <point x="142" y="394" type="curve" smooth="yes"/>
      <point x="142" y="424"/>
      <point x="155" y="450"/>
      <point x="181" y="477" type="curve" smooth="yes"/>
      <point x="230" y="528"/>
      <point x="237" y="557"/>
      <point x="237" y="609" type="curve" smooth="yes"/>
      <point x="237" y="696"/>
      <point x="188" y="759"/>
      <point x="57" y="762" type="curve"/>
      <point x="57" y="719" type="line"/>
      <point x="171" y="714"/>
      <point x="184" y="658"/>
      <point x="184" y="609" type="curve" smooth="yes"/>
      <point x="184" y="577"/>
      <point x="176" y="544"/>
      <point x="142" y="507" type="curve" smooth="yes"/>
      <point x="110" y="472"/>
      <point x="89" y="436"/>
      <point x="89" y="395" type="curve" smooth="yes"/>
      <point x="89" y="359"/>
      <point x="102" y="302"/>
      <point x="194" y="281" type="curve"/>
      <point x="102" y="260"/>
      <point x="89" y="203"/>
      <point x="89" y="167" type="curve" smooth="yes"/>
      <point x="89" y="126"/>
      <point x="110" y="90"/>
      <point x="142" y="55" type="curve" smooth="yes"/>
      <point x="176" y="18"/>
      <point x="184" y="-15"/>
      <point x="184" y="-47" type="curve" smooth="yes"/>
      <point x="184" y="-96"/>
      <point x="171" y="-152"/>
      <point x="57" y="-157" type="curve"/>
    </contour>
  </outline>
</glyph>
<glyph name="exclamdown" format="2">
  <advance width="278"/>
  <unicode hex="00A1"/>
  <outline>
    <contour>
      <point x="104" y="-55" type="line"/>
      <point x="178" y="-55" type="line"/>
      <point x="168" y="538" type="line"/>
      <point x="115" y="538" type="line"/>
    </contour>
    <contour>
      <point x="85" y="644" type="curve" smooth="yes"/>
      <point x="85" y="614"/>
      <point x="110" y="588"/>
      <point x="141" y="588" type="curve" smooth="yes"/>
      <point x="171" y="588"/>
      <point x="197" y="614"/>
      <point x="197" y="644" type="curve" smooth="yes"/>
      <point x="197" y="675"/>
      <point x="171" y="700"/>
      <point x="141" y="700" type="curve" smooth="yes"/>
      <point x="110" y="700"/>
      <point x="85" y="675"/>
    </contour>
  </outline>
</glyph>
<glyph name="sterling" format="2">
  <advance width="500"/>
  <unicode hex="00A3"/>
  <outline>
    <contour>
      <point x="500" y="53" type="line"/>
      <point x="500" y="0" type="line"/>
      <point x="8" y="0" type="line"/>
      <point x="8" y="57" type="line"/>
      <point x="33" y="57"/>
      <point x="84.4723725094434" y="93.27088507738887"/>
      <point x="95.84033098831026" y="124.40920612819832"/>
      <point x="103" y="177"/>
      <point x="103" y="217" type="qcurve"/>
      <point x="103" y="354" type="line"/>
      <point x="-4" y="354" type="line"/>
      <point x="-4" y="402" type="line"/>
      <point x="103" y="402" type="line"/>
      <point x="103" y="573" type="line"/>
      <point x="103" y="658"/>
      <point x="218.41657893435388" y="749.6469224658806"/>
      <point x="389.92447424595525" y="749.6469224658806"/>
      <point x="493" y="661"/>
      <point x="496" y="587" type="qcurve"/>
      <point x="444" y="587" type="line"/>
      <point x="443" y="644"/>
      <point x="353" y="698"/>
      <point x="303" y="698" type="qcurve"/>
      <point x="264" y="698"/>
      <point x="211.00269296987562" y="665.8525189631828"/>
      <point x="163" y="615"/>
      <point x="163" y="585" type="qcurve"/>
      <point x="163" y="402" type="line"/>
      <point x="348" y="402" type="line"/>
      <point x="348" y="354" type="line"/>
      <point x="163" y="354" type="line"/>
      <point x="163" y="214" type="line"/>
      <point x="163" y="158"/>
      <point x="149" y="71"/>
      <point x="127" y="57" type="qcurve"/>
      <point x="127" y="53" type="line"/>
    </contour>
  </outline>
</glyph>
<glyph name="section" format="2">
  <advance width="500"/>
  <unicode hex="00A7"/>
  <outline>
    <contour>
      <point x="318" y="199" type="curve" smooth="yes"/>
      <point x="293" y="199"/>
      <point x="261" y="229"/>
      <point x="243" y="244" type="curve" smooth="yes"/>
      <point x="184" y="295"/>
      <point x="141" y="344"/>
      <point x="120" y="373" type="curve" smooth="yes"/>
      <point x="103" y="396"/>
      <point x="86" y="422"/>
      <point x="86" y="451" type="curve" smooth="yes"/>
      <point x="86" y="499"/>
      <point x="133" y="527"/>
      <point x="167" y="527" type="curve" smooth="yes"/>
      <point x="195" y="527"/>
      <point x="220" y="517"/>
      <point x="241" y="498" type="curve" smooth="yes"/>
      <point x="283" y="462"/>
      <point x="356" y="381"/>
      <point x="381" y="350" type="curve" smooth="yes"/>
      <point x="396" y="333"/>
      <point x="414" y="305"/>
      <point x="414" y="281" type="curve" smooth="yes"/>
      <point x="414" y="231"/>
      <point x="365" y="199"/>
    </contour>
    <contour>
      <point x="312" y="735" type="line"/>
      <point x="312" y="639" type="line"/>
      <point x="357" y="639" type="line"/>
      <point x="357" y="781" type="line"/>
      <point x="293" y="781" type="line" smooth="yes"/>
      <point x="218" y="781"/>
      <point x="116" y="792"/>
      <point x="116" y="687" type="curve" smooth="yes"/>
      <point x="116" y="643"/>
      <point x="150" y="599"/>
      <point x="178" y="567" type="curve"/>
      <point x="100" y="567"/>
      <point x="37" y="524"/>
      <point x="37" y="440" type="curve" smooth="yes"/>
      <point x="37" y="384"/>
      <point x="111" y="307"/>
      <point x="185" y="233" type="curve" smooth="yes"/>
      <point x="245" y="168"/>
      <point x="334" y="88"/>
      <point x="334" y="42" type="curve" smooth="yes"/>
      <point x="334" y="5"/>
      <point x="306" y="-14"/>
      <point x="243" y="-14" type="curve" smooth="yes"/>
      <point x="173" y="-14" type="line"/>
      <point x="173" y="97" type="line"/>
      <point x="128" y="97" type="line"/>
      <point x="128" y="-60" type="line"/>
      <point x="221" y="-60" type="line" smooth="yes"/>
      <point x="281" y="-60"/>
      <point x="388" y="-60"/>
      <point x="388" y="36" type="curve" smooth="yes"/>
      <point x="388" y="86"/>
      <point x="355" y="126"/>
      <point x="326" y="159" type="curve"/>
      <point x="395" y="156"/>
      <point x="463" y="207"/>
      <point x="463" y="279" type="curve" smooth="yes"/>
      <point x="463" y="317"/>
      <point x="446" y="352"/>
      <point x="417" y="380" type="curve" smooth="yes"/>
      <point x="400" y="398"/>
      <point x="265" y="553"/>
      <point x="231" y="585" type="curve" smooth="yes"/>
      <point x="189" y="624"/>
      <point x="170" y="654"/>
      <point x="170" y="681" type="curve" smooth="yes"/>
      <point x="170" y="726"/>
      <point x="206" y="735"/>
      <point x="254" y="735" type="curve" smooth="yes"/>
    </contour>
  </outline>
</glyph>
<glyph name="dieresis" format="2">
  <advance width="278"/>
  <unicode hex="00A8"/>
  <outline>
    <contour>
      <point x="27" y="593" type="line"/>
      <point x="92" y="593" type="line"/>
      <point x="92" y="658" type="line"/>
      <point x="27" y="658" type="line"/>
    </contour>
    <contour>
      <point x="186" y="593" type="line"/>
      <point x="251" y="593" type="line"/>
      <point x="251" y="658" type="line"/>
      <point x="186" y="658" type="line"/>
    </contour>
  </outline>
</glyph>
<glyph name="guillemetleft" format="2">
  <advance width="417"/>
  <unicode hex="00AB"/>
  <outline>
    <contour>
      <point x="52" y="231" type="line"/>
      <point x="176" y="77" type="line"/>
      <point x="239" y="77" type="line"/>
      <point x="116" y="231" type="line"/>
      <point x="239" y="385" type="line"/>
      <point x="176" y="385" type="line"/>
    </contour>
    <contour>
      <point x="197" y="231" type="line"/>
      <point x="321" y="77" type="line"/>
      <point x="384" y="77" type="line"/>
      <point x="261" y="231" type="line"/>
      <point x="384" y="385" type="line"/>
      <point x="321" y="385" type="line"/>
    </contour>
  </outline>
</glyph>
<glyph name="macron" format="2">
  <advance width="278"/>
  <unicode hex="00AF"/>
  <outline>
    <contour>
      <point x="-9" y="595" type="line"/>
      <point x="286" y="595" type="line"/>
      <point x="286" y="641" type="line"/>
      <point x="-9" y="641" type="line"/>
    </contour>
  </outline>
</glyph>
<glyph name="degree" format="2">
  <advance width="400"/>
  <unicode hex="00B0"/>
  <outline>
    <contour>
      <point x="200" y="466" type="curve" smooth="yes"/>
      <point x="140" y="466"/>
      <point x="92" y="519"/>
      <point x="92" y="579" type="curve" smooth="yes"/>
      <point x="92" y="639"/>
      <point x="140" y="692"/>
      <point x="200" y="692" type="curve" smooth="yes"/>
      <point x="260" y="692"/>
      <point x="308" y="639"/>
      <point x="308" y="579" type="curve" smooth="yes"/>
      <point x="308" y="519"/>
      <point x="260" y="466"/>
    </contour>
    <contour>
      <point x="200" y="436" type="curve" smooth="yes"/>
      <point x="280" y="436"/>
      <point x="343" y="499"/>
      <point x="343" y="579" type="curve" smooth="yes"/>
      <point x="343" y="659"/>
      <point x="280" y="722"/>
      <point x="200" y="722" type="curve" smooth="yes"/>
      <point x="120" y="722"/>
      <point x="57" y="659"/>
      <point x="57" y="579" type="curve" smooth="yes"/>
      <point x="57" y="499"/>
      <point x="120" y="436"/>
    </contour>
  </outline>
</glyph>
<glyph name="plusminus" format="2">
  <advance width="500"/>
  <unicode hex="00B1"/>
  <outline>
    <contour>
      <point x="240" y="208" type="line"/>
      <point x="290" y="208" type="line"/>
      <point x="290" y="364" type="line"/>
      <point x="445" y="364" type="line"/>
      <point x="445" y="412" type="line"/>
      <point x="290" y="412" type="line"/>
      <point x="290" y="568" type="line"/>
      <point x="240" y="568" type="line"/>
      <point x="240" y="412" type="line"/>
      <point x="85" y="412" type="line"/>
      <point x="85" y="364" type="line"/>
      <point x="240" y="364" type="line"/>
    </contour>
    <contour>
      <point x="85" y="76" type="line"/>
      <point x="445" y="76" type="line"/>
      <point x="445" y="124" type="line"/>
      <point x="85" y="124" type="line"/>
    </contour>
  </outline>
</glyph>
<glyph name="cedilla" format="2">
  <advance width="278"/>
  <unicode hex="00B8"/>
  <outline>
    <contour>
      <point x="12" y="-188" type="line"/>
      <point x="42" y="-202"/>
      <point x="76" y="-208"/>
      <point x="109" y="-208" type="curve" smooth="yes"/>
      <point x="153" y="-208"/>
      <point x="204" y="-183"/>
      <point x="204" y="-131" type="curve" smooth="yes"/>
      <point x="204" y="-79"/>
      <point x="168" y="-53"/>
      <point x="140" y="-53" type="curve" smooth="yes"/>
      <point x="125" y="-53"/>
      <point x="115" y="-55"/>
      <point x="104" y="-59" type="curve"/>
      <point x="102" y="-57" type="line"/>
      <point x="146" y="0" type="line"/>
      <point x="108" y="0" type="line"/>
      <point x="47" y="-82" type="line"/>
      <point x="63" y="-95" type="line"/>
      <point x="93" y="-83"/>
      <point x="166" y="-81"/>
      <point x="166" y="-127" type="curve" smooth="yes"/>
      <point x="166" y="-164"/>
      <point x="114" y="-173"/>
      <point x="85" y="-173" type="curve" smooth="yes"/>
      <point x="67" y="-173"/>
      <point x="43" y="-164"/>
      <point x="27" y="-158" type="curve"/>
    </contour>
  </outline>
</glyph>
<glyph name="guillemetright" format="2">
  <advance width="500"/>
  <unicode hex="00BB"/>
  <outline>
    <contour>
      <point x="147" y="385" type="line"/>
      <point x="84" y="385" type="line"/>
      <point x="207" y="231" type="line"/>
      <point x="84" y="77" type="line"/>
      <point x="147" y="77" type="line"/>
      <point x="271" y="231" type="line"/>
    </contour>
    <contour>
      <point x="292" y="385" type="line"/>
      <point x="229" y="385" type="line"/>
      <point x="352" y="231" type="line"/>
      <point x="229" y="77" type="line"/>
      <point x="292" y="77" type="line"/>
      <point x="416" y="231" type="line"/>
    </contour>
  </outline>
</glyph>
<glyph name="onehalf" format="2">
  <advance width="795"/>
  <unicode hex="00BD"/>
  <outline>
    <contour>
      <point x="502" y="-1" type="curve" smooth="yes"/>
      <point x="741" y="-1" type="line"/>
      <point x="741" y="93" type="line"/>
      <point x="702" y="93" type="line"/>
      <point x="702" y="36" type="line"/>
      <point x="543" y="36" type="line"/>
      <point x="559" y="79"/>
      <point x="600" y="115"/>
      <point x="644" y="145" type="curve" smooth="yes"/>
      <point x="695" y="180"/>
      <point x="735" y="209"/>
      <point x="735" y="267" type="curve" smooth="yes"/>
      <point x="735" y="327"/>
      <point x="681" y="368"/>
      <point x="618" y="368" type="curve" smooth="yes"/>
      <point x="545" y="368"/>
      <point x="500" y="322"/>
      <point x="500" y="281" type="curve" smooth="yes"/>
      <point x="500" y="257"/>
      <point x="512" y="241"/>
      <point x="533" y="241" type="curve" smooth="yes"/>
      <point x="550" y="241"/>
      <point x="563" y="255"/>
      <point x="563" y="271" type="curve" smooth="yes"/>
      <point x="563" y="283"/>
      <point x="556" y="294"/>
      <point x="546" y="298" type="curve"/>
      <point x="549" y="309"/>
      <point x="574" y="330"/>
      <point x="616" y="330" type="curve" smooth="yes"/>
      <point x="655" y="330"/>
      <point x="689" y="303"/>
      <point x="689" y="267" type="curve" smooth="yes"/>
      <point x="689" y="227"/>
      <point x="660" y="204"/>
      <point x="618" y="174" type="curve" smooth="yes"/>
      <point x="570" y="140"/>
      <point x="514" y="95"/>
      <point x="490" y="19" type="curve"/>
      <point x="490" y="19"/>
      <point x="501" y="-1"/>
    </contour>
    <contour>
      <point x="230" y="-12" type="line"/>
      <point x="426" y="311" type="line"/>
      <point x="619" y="628" type="line"/>
      <point x="586" y="648" type="line"/>
      <point x="393" y="331" type="line"/>
      <point x="197" y="8" type="line"/>
    </contour>
    <contour>
      <point x="53" y="281" type="line"/>
      <point x="289" y="281" type="line"/>
      <point x="289" y="320" type="line"/>
      <point x="193" y="320" type="line"/>
      <point x="193" y="645" type="line"/>
      <point x="172" y="645" type="line"/>
      <point x="48" y="614" type="line"/>
      <point x="57" y="575" type="line"/>
      <point x="150" y="597" type="line"/>
      <point x="150" y="320" type="line"/>
      <point x="53" y="320" type="line"/>
    </contour>
  </outline>
</glyph>
<glyph name="questiondown" format="2">
  <advance width="442"/>
  <unicode hex="00BF"/>
  <outline>
    <contour>
      <point x="219" y="215" type="line"/>
      <point x="103" y="215"/>
      <point x="27" y="117"/>
      <point x="27" y="7" type="curve" smooth="yes"/>
      <point x="27" y="-105"/>
      <point x="109" y="-200"/>
      <point x="224" y="-200" type="curve" smooth="yes"/>
      <point x="339" y="-200"/>
      <point x="419" y="-114"/>
      <point x="422" y="-2" type="curve"/>
      <point x="368" y="-2" type="line"/>
      <point x="367" y="-84"/>
      <point x="308" y="-152"/>
      <point x="224" y="-152" type="curve" smooth="yes"/>
      <point x="141" y="-152"/>
      <point x="81" y="-76"/>
      <point x="81" y="3" type="curve" smooth="yes"/>
      <point x="81" y="116"/>
      <point x="165" y="178"/>
      <point x="273" y="166" type="curve"/>
      <point x="273" y="399" type="line"/>
      <point x="219" y="399" type="line"/>
    </contour>
    <contour>
      <point x="302" y="499" type="curve" smooth="yes"/>
      <point x="302" y="530"/>
      <point x="277" y="555"/>
      <point x="246" y="555" type="curve" smooth="yes"/>
      <point x="216" y="555"/>
      <point x="190" y="530"/>
      <point x="190" y="499" type="curve" smooth="yes"/>
      <point x="190" y="469"/>
      <point x="216" y="443"/>
      <point x="246" y="443" type="curve" smooth="yes"/>
      <point x="277" y="443"/>
      <point x="302" y="469"/>
    </contour>
  </outline>
</glyph>
<glyph name="AE" format="2">
  <advance width="860"/>
  <unicode hex="00C6"/>
  <outline>
    <contour>
      <point x="511" y="427" type="line"/>
      <point x="511" y="700" type="line"/>
      <point x="766" y="700" type="line"/>
      <point x="766" y="585" type="line"/>
      <point x="816" y="585" type="line"/>
      <point x="816" y="750" type="line"/>
      <point x="459" y="750" type="line"/>
      <point x="459" y="700" type="line"/>
      <point x="459" y="50" type="line"/>
      <point x="459" y="0" type="line"/>
      <point x="676" y="0" type="line"/>
      <point x="676" y="1" type="line"/>
      <point x="816" y="1" type="line"/>
      <point x="816" y="166" type="line"/>
      <point x="766" y="166" type="line"/>
      <point x="766" y="50" type="line"/>
      <point x="511" y="50" type="line"/>
      <point x="511" y="375" type="line"/>
      <point x="695" y="375" type="line"/>
      <point x="695" y="427" type="line"/>
    </contour>
    <contour>
      <point x="268" y="0" type="line"/>
      <point x="268" y="50" type="line"/>
      <point x="188" y="50" type="line"/>
      <point x="272" y="237" type="line"/>
      <point x="459" y="237" type="line"/>
      <point x="459" y="50" type="line"/>
      <point x="379" y="50" type="line"/>
      <point x="379" y="0" type="line"/>
      <point x="512" y="0" type="line"/>
      <point x="512" y="50" type="line"/>
      <point x="512" y="702" type="line"/>
      <point x="512" y="750" type="line"/>
      <point x="336" y="750" type="line"/>
      <point x="336" y="702" type="line"/>
      <point x="406" y="702" type="line"/>
      <point x="122" y="50" type="line"/>
      <point x="34" y="50" type="line"/>
      <point x="34" y="0" type="line"/>
    </contour>
    <contour>
      <point x="289" y="285" type="line"/>
      <point x="457" y="678" type="line"/>
      <point x="459" y="678" type="line"/>
      <point x="459" y="285" type="line"/>
    </contour>
  </outline>
</glyph>
<glyph name="Eth" format="2">
  <advance width="790"/>
  <unicode hex="00D0"/>
  <outline>
    <contour>
      <point x="52" y="352" type="line"/>
      <point x="376" y="352" type="line"/>
      <point x="376" y="400" type="line"/>
      <point x="52" y="400" type="line"/>
    </contour>
    <component base="D"/>
  </outline>
</glyph>
<glyph name="Thorn" format="2">
  <advance width="523"/>
  <unicode hex="00DE"/>
  <outline>
    <contour>
      <point x="3" y="-199" type="line"/>
      <point x="211" y="-199" type="line"/>
      <point x="211" y="-153" type="line"/>
      <point x="124" y="-153" type="line"/>
      <point x="124" y="51" type="line"/>
      <point x="161" y="21"/>
      <point x="210" y="2"/>
      <point x="261" y="2" type="curve" smooth="yes"/>
      <point x="393" y="2"/>
      <point x="473" y="105"/>
      <point x="473" y="223" type="curve" smooth="yes"/>
      <point x="473" y="353"/>
      <point x="382" y="438"/>
      <point x="271" y="438" type="curve" smooth="yes"/>
      <point x="205" y="438"/>
      <point x="161" y="409"/>
      <point x="124" y="370" type="curve"/>
      <point x="124" y="750" type="line"/>
      <point x="3" y="750" type="line"/>
      <point x="3" y="704" type="line"/>
      <point x="73" y="704" type="line"/>
      <point x="73" y="-153" type="line"/>
      <point x="3" y="-153" type="line"/>
    </contour>
    <contour>
      <point x="263" y="48" type="curve" smooth="yes"/>
      <point x="201" y="48"/>
      <point x="158" y="72"/>
      <point x="124" y="102" type="curve"/>
      <point x="124" y="321" type="line"/>
      <point x="161" y="362"/>
      <point x="207" y="392"/>
      <point x="268" y="392" type="curve" smooth="yes"/>
      <point x="356" y="392"/>
      <point x="420" y="322"/>
      <point x="419" y="222" type="curve" smooth="yes"/>
      <point x="418" y="125"/>
      <point x="357" y="48"/>
    </contour>
  </outline>
</glyph>
<glyph name="germandbls" format="2">
  <advance width="446"/>
  <unicode hex="00DF"/>
  <outline>
    <contour>
      <point x="259" y="7" type="line"/>
    </contour>
    <contour>
      <point x="367" y="0" type="line"/>
      <point x="457" y="0"/>
      <point x="526" y="51"/>
      <point x="526" y="141" type="curve" smooth="yes"/>
      <point x="526" y="216"/>
      <point x="480" y="262"/>
      <point x="417" y="298" type="curve" smooth="yes"/>
      <point x="358" y="332"/>
      <point x="337" y="351"/>
      <point x="337" y="381" type="curve" smooth="yes"/>
      <point x="337" y="408"/>
      <point x="344" y="425"/>
      <point x="381" y="461" type="curve" smooth="yes"/>
      <point x="427" y="506"/>
      <point x="446" y="551"/>
      <point x="446" y="610" type="curve" smooth="yes"/>
      <point x="446" y="693"/>
      <point x="371" y="755"/>
      <point x="288" y="755" type="curve" smooth="yes"/>
      <point x="232" y="755"/>
      <point x="176" y="733"/>
      <point x="147" y="689" type="curve" smooth="yes"/>
      <point x="130" y="662"/>
      <point x="119" y="627"/>
      <point x="119" y="583" type="curve" smooth="yes"/>
      <point x="119" y="398" type="line"/>
      <point x="42" y="398" type="line"/>
      <point x="42" y="351" type="line"/>
      <point x="119" y="351" type="line"/>
      <point x="119" y="47" type="line"/>
      <point x="48" y="47" type="line"/>
      <point x="48" y="0" type="line"/>
      <point x="171" y="0" type="line"/>
      <point x="171" y="589" type="line" smooth="yes"/>
      <point x="171" y="616"/>
      <point x="178" y="640"/>
      <point x="188" y="659" type="curve" smooth="yes"/>
      <point x="205" y="689"/>
      <point x="244" y="707"/>
      <point x="281" y="707" type="curve" smooth="yes"/>
      <point x="335" y="707"/>
      <point x="394" y="665"/>
      <point x="394" y="610" type="curve" smooth="yes"/>
      <point x="394" y="569"/>
      <point x="384" y="533"/>
      <point x="341" y="492" type="curve" smooth="yes"/>
      <point x="297" y="448"/>
      <point x="286" y="417"/>
      <point x="286" y="381" type="curve" smooth="yes"/>
      <point x="286" y="319"/>
      <point x="321" y="292"/>
      <point x="389" y="255" type="curve" smooth="yes"/>
      <point x="442" y="227"/>
      <point x="475" y="194"/>
      <point x="475" y="141" type="curve" smooth="yes"/>
      <point x="475" y="76"/>
      <point x="428" y="45"/>
      <point x="367" y="45" type="curve"/>
      <point x="267" y="45" type="line"/>
      <point x="267" y="0" type="line"/>
    </contour>
    <component base="s(ligature)" xScale="1.0196127067307117" yScale="1.0196127067307115" xOffset="-1"/>
  </outline>
</glyph>
<glyph name="ae" format="2">
  <advance width="833"/>
  <unicode hex="00E6"/>
  <guideline x="457" y="242" angle="0" identifier="BadxzMYoqG"/>
  <guideline x="266" y="423" angle="0" identifier="bhKhMFMX1H"/>
  <guideline x="322" y="53" angle="0" identifier="SKbOLhSeNL"/>
  <guideline x="457" y="242" angle="0" identifier="utF9QhvfgN"/>
  <guideline x="266" y="423" angle="0" identifier="Ap6zTnUNsp"/>
  <guideline x="322" y="53" angle="0" identifier="zm6n2k6vas"/>
  <outline>
    <contour>
      <point x="560" y="1" type="qcurve"/>
      <point x="495" y="1"/>
      <point x="419" y="63"/>
      <point x="404" y="102" type="qcurve"/>
      <point x="399" y="102" type="line"/>
      <point x="381" y="64"/>
      <point x="293" y="1"/>
      <point x="234" y="1" type="qcurve"/>
      <point x="166" y="1"/>
      <point x="80" y="76"/>
      <point x="80" y="141" type="qcurve"/>
      <point x="80" y="205"/>
      <point x="166" y="272"/>
      <point x="244" y="272" type="qcurve"/>
      <point x="371" y="272" type="line"/>
      <point x="371" y="328" type="line"/>
      <point x="371" y="373"/>
      <point x="323" y="426"/>
      <point x="253" y="428" type="qcurve"/>
      <point x="159" y="430"/>
      <point x="152" y="360" type="qcurve"/>
      <point x="97" y="360" type="line"/>
      <point x="102" y="417"/>
      <point x="194" y="477"/>
      <point x="268" y="477" type="qcurve"/>
      <point x="316" y="477"/>
      <point x="390" y="426"/>
      <point x="409" y="394" type="qcurve"/>
      <point x="413" y="394" type="line"/>
      <point x="433" y="424"/>
      <point x="510" y="477"/>
      <point x="554" y="477" type="qcurve"/>
      <point x="595" y="477"/>
      <point x="663.1419183426549" y="448.8069215068332"/>
      <point x="711.5534774244754" y="396.7644954938769"/>
      <point x="738" y="321"/>
      <point x="738" y="277" type="qcurve"/>
      <point x="738" y="220" type="line"/>
      <point x="428" y="220" type="line"/>
      <point x="428" y="183" type="line"/>
      <point x="428" y="131"/>
      <point x="493" y="53"/>
      <point x="569" y="54" type="qcurve"/>
      <point x="608" y="54"/>
      <point x="666" y="86"/>
      <point x="672" y="118" type="qcurve"/>
      <point x="731" y="118" type="line"/>
      <point x="728" y="99"/>
      <point x="705.9054621982623" y="59.900730216214114"/>
      <point x="665.5624962967456" y="23.59206090484926"/>
      <point x="600" y="1"/>
    </contour>
    <contour>
      <point x="554" y="421" type="qcurve"/>
      <point x="503" y="421"/>
      <point x="428" y="341"/>
      <point x="428" y="286" type="qcurve"/>
      <point x="428" y="269" type="line"/>
      <point x="676" y="269" type="line"/>
      <point x="676" y="280" type="line"/>
      <point x="676" y="310"/>
      <point x="663" y="364"/>
      <point x="634" y="398"/>
      <point x="581" y="421"/>
    </contour>
    <contour>
      <point x="236" y="46" type="qcurve"/>
      <point x="286" y="46"/>
      <point x="371" y="121"/>
      <point x="371" y="167" type="qcurve"/>
      <point x="371" y="220" type="line"/>
      <point x="231" y="220" type="line"/>
      <point x="183" y="220"/>
      <point x="124" y="176"/>
      <point x="124" y="142" type="qcurve"/>
      <point x="124" y="102"/>
      <point x="194" y="46"/>
    </contour>
  </outline>
</glyph>
<glyph name="eth" format="2">
  <advance width="584"/>
  <unicode hex="00F0"/>
  <outline>
    <contour>
      <point x="186" y="810" type="line"/>
      <point x="169" y="760" type="line"/>
    </contour>
    <contour>
      <point x="205" y="510" type="line"/>
      <point x="344" y="638" type="line"/>
      <point x="611" y="339"/>
      <point x="438" y="93"/>
      <point x="446" y="111" type="curve"/>
      <point x="535" y="217" type="line"/>
      <point x="561" y="430"/>
      <point x="465" y="577"/>
      <point x="382" y="672" type="curve"/>
      <point x="489" y="769" type="line"/>
      <point x="456" y="808" type="line"/>
      <point x="347" y="709" type="line"/>
      <point x="308" y="747"/>
      <point x="266" y="774"/>
      <point x="229" y="793" type="curve" smooth="yes"/>
      <point x="214" y="800"/>
      <point x="199" y="806"/>
      <point x="186" y="810" type="curve"/>
      <point x="169" y="760" type="line"/>
      <point x="170" y="760" type="line"/>
      <point x="207" y="753"/>
      <point x="259" y="723"/>
      <point x="309" y="674" type="curve"/>
      <point x="173" y="550" type="line"/>
    </contour>
    <component base="o"/>
  </outline>
</glyph>
<glyph name="oslash" format="2">
  <advance width="584"/>
  <unicode hex="00F8"/>
  <outline>
    <contour>
      <point x="40" y="5" type="line"/>
      <point x="108" y="5" type="line"/>
      <point x="551" y="484" type="line"/>
      <point x="483" y="484" type="line"/>
    </contour>
    <component base="o"/>
  </outline>
</glyph>
<glyph name="lslash" format="2">
  <advance width="284"/>
  <unicode hex="0142"/>
  <outline>
    <contour>
      <point x="274" y="470" type="line"/>
      <point x="250" y="509" type="line"/>
      <point x="-1" y="360" type="line"/>
      <point x="22" y="320" type="line"/>
    </contour>
    <component base="l"/>
  </outline>
</glyph>
<glyph name="circumflex" format="2">
  <advance width="278"/>
  <unicode hex="02C6"/>
  <outline>
    <contour>
      <point x="138" y="851" type="line"/>
      <point x="220" y="749" type="line"/>
      <point x="285" y="749" type="line"/>
      <point x="172" y="888" type="line"/>
      <point x="104" y="888" type="line"/>
      <point x="-8" y="749" type="line"/>
      <point x="56" y="749" type="line"/>
    </contour>
  </outline>
</glyph>
<glyph name="breve" format="2">
  <advance width="278"/>
  <unicode hex="02D8"/>
  <outline>
    <contour>
      <point x="-5" y="702" type="line"/>
      <point x="-2" y="624"/>
      <point x="56" y="575"/>
      <point x="132" y="575" type="curve" smooth="yes"/>
      <point x="214" y="575"/>
      <point x="273" y="619"/>
      <point x="282" y="702" type="curve"/>
      <point x="245" y="702" type="line"/>
      <point x="234" y="652"/>
      <point x="194" y="621"/>
      <point x="143" y="621" type="curve" smooth="yes"/>
      <point x="87" y="621"/>
      <point x="43" y="643"/>
      <point x="33" y="702" type="curve"/>
    </contour>
  </outline>
</glyph>
<glyph name="dotaccent" format="2">
  <advance width="278"/>
  <unicode hex="02D9"/>
  <outline>
    <contour>
      <point x="106" y="690" type="line"/>
      <point x="171" y="690" type="line"/>
      <point x="171" y="770" type="line"/>
      <point x="106" y="770" type="line"/>
    </contour>
  </outline>
</glyph>
<glyph name="ring" format="2">
  <advance width="278"/>
  <unicode hex="02DA"/>
  <outline>
    <contour>
      <point x="139" y="509" type="curve" smooth="yes"/>
      <point x="194" y="509"/>
      <point x="241" y="556"/>
      <point x="241" y="611" type="curve" smooth="yes"/>
      <point x="241" y="666"/>
      <point x="194" y="713"/>
      <point x="139" y="713" type="curve" smooth="yes"/>
      <point x="84" y="713"/>
      <point x="37" y="666"/>
      <point x="37" y="611" type="curve" smooth="yes"/>
      <point x="37" y="556"/>
      <point x="84" y="509"/>
    </contour>
    <contour>
      <point x="139" y="546" type="curve" smooth="yes"/>
      <point x="102" y="546"/>
      <point x="74" y="574"/>
      <point x="74" y="611" type="curve" smooth="yes"/>
      <point x="74" y="647"/>
      <point x="102" y="676"/>
      <point x="139" y="676" type="curve" smooth="yes"/>
      <point x="175" y="676"/>
      <point x="204" y="647"/>
      <point x="204" y="611" type="curve" smooth="yes"/>
      <point x="204" y="574"/>
      <point x="175" y="546"/>
    </contour>
  </outline>
</glyph>
<glyph name="ogonek" format="2">
  <advance width="278"/>
  <unicode hex="02DB"/>
  <outline>
    <contour>
      <point x="225" y="-158" type="line"/>
      <point x="209" y="-164"/>
      <point x="185" y="-173"/>
      <point x="167" y="-173" type="curve" smooth="yes"/>
      <point x="128" y="-173"/>
      <point x="86" y="-164"/>
      <point x="86" y="-117" type="curve" smooth="yes"/>
      <point x="86" y="-61"/>
      <point x="197" y="-30"/>
      <point x="245" y="0" type="curve"/>
      <point x="179" y="0" type="line"/>
      <point x="99" y="-27"/>
      <point x="38" y="-61"/>
      <point x="38" y="-130" type="curve" smooth="yes"/>
      <point x="38" y="-182"/>
      <point x="91" y="-208"/>
      <point x="143" y="-208" type="curve" smooth="yes"/>
      <point x="176" y="-208"/>
      <point x="210" y="-202"/>
      <point x="240" y="-188" type="curve"/>
    </contour>
  </outline>
</glyph>
<glyph name="tilde" format="2">
  <advance width="278"/>
  <unicode hex="02DC"/>
  <outline>
    <contour>
      <point x="20" y="598" type="line"/>
      <point x="23" y="621"/>
      <point x="41" y="648"/>
      <point x="67" y="648" type="curve" smooth="yes"/>
      <point x="86" y="648"/>
      <point x="110" y="637"/>
      <point x="136" y="625" type="curve" smooth="yes"/>
      <point x="161" y="614"/>
      <point x="187" y="602"/>
      <point x="208" y="602" type="curve" smooth="yes"/>
      <point x="266" y="602"/>
      <point x="289" y="649"/>
      <point x="295" y="700" type="curve"/>
      <point x="258" y="700" type="line"/>
      <point x="255" y="675"/>
      <point x="241" y="650"/>
      <point x="213" y="650" type="curve" smooth="yes"/>
      <point x="193" y="650"/>
      <point x="169" y="661"/>
      <point x="145" y="673" type="curve" smooth="yes"/>
      <point x="120" y="684"/>
      <point x="95" y="695"/>
      <point x="71" y="695" type="curve" smooth="yes"/>
      <point x="18" y="695"/>
      <point x="-13" y="646"/>
      <point x="-17" y="598" type="curve"/>
    </contour>
  </outline>
</glyph>
<glyph name="hungarumlaut" format="2">
  <advance width="278"/>
  <unicode hex="02DD"/>
  <outline>
    <contour>
      <point x="181" y="699" type="line"/>
      <point x="104" y="699" type="line"/>
      <point x="8" y="560" type="line"/>
      <point x="58" y="560" type="line"/>
    </contour>
    <contour>
      <point x="335" y="699" type="line"/>
      <point x="258" y="699" type="line"/>
      <point x="147" y="560" type="line"/>
      <point x="197" y="560" type="line"/>
    </contour>
  </outline>
</glyph>
<glyph name="quotedblleft" format="2">
  <advance width="306"/>
  <unicode hex="201C"/>
  <outline>
    <contour>
      <point x="293" y="538" type="line"/>
      <point x="293" y="538" type="line"/>
      <point x="237" y="538" type="line"/>
      <point x="171" y="750" type="line"/>
      <point x="227" y="750" type="line"/>
    </contour>
    <contour>
      <point x="153" y="538" type="line"/>
      <point x="153" y="538" type="line"/>
      <point x="97" y="538" type="line"/>
      <point x="31" y="750" type="line"/>
      <point x="87" y="750" type="line"/>
    </contour>
  </outline>
</glyph>
<glyph name="guilsinglleft" format="2">
  <advance width="280"/>
  <unicode hex="2039"/>
  <outline>
    <contour>
      <point x="193" y="184" type="line"/>
      <point x="226" y="215" type="line"/>
      <point x="101" y="342" type="line"/>
      <point x="226" y="469" type="line"/>
      <point x="193" y="500" type="line"/>
      <point x="33" y="342" type="line"/>
    </contour>
  </outline>
</glyph>
<glyph name="fraction" format="2">
  <advance width="500"/>
  <unicode hex="2044"/>
  <outline>
    <contour>
      <point x="230" y="-12" type="line"/>
      <point x="426" y="311" type="line"/>
      <point x="619" y="628" type="line"/>
      <point x="586" y="648" type="line"/>
      <point x="393" y="331" type="line"/>
      <point x="197" y="8" type="line"/>
    </contour>
  </outline>
</glyph>
<glyph name="minus" format="2">
  <advance width="383"/>
  <unicode hex="2212"/>
  <outline>
    <contour>
      <point x="28" y="257" type="line"/>
      <point x="355" y="257" type="line"/>
      <point x="355" y="207" type="line"/>
      <point x="28" y="207" type="line"/>
      <point x="28" y="257" type="line"/>
    </contour>
  </outline>
</glyph>
<glyph name="Q.alt" format="2">
  <advance width="500"/>
  <outline>
    <contour>
      <point x="525" y="-107" type="line"/>
      <point x="573" y="-78" type="line"/>
      <point x="493" y="49" type="line"/>
      <point x="602" y="114"/>
      <point x="672" y="234"/>
      <point x="672" y="376" type="curve" smooth="yes"/>
      <point x="672" y="585"/>
      <point x="517" y="750"/>
      <point x="310" y="750" type="curve" smooth="yes"/>
      <point x="100" y="750"/>
      <point x="-56" y="586"/>
      <point x="-56" y="374" type="curve" smooth="yes"/>
      <point x="-56" y="165"/>
      <point x="99" y="0"/>
      <point x="306" y="0" type="curve" smooth="yes"/>
      <point x="354" y="0"/>
      <point x="399" y="9"/>
      <point x="441" y="24" type="curve"/>
    </contour>
    <contour>
      <point x="308" y="57" type="curve" smooth="yes"/>
      <point x="131" y="57"/>
      <point x="8" y="198"/>
      <point x="8" y="376" type="curve" smooth="yes"/>
      <point x="8" y="553"/>
      <point x="131" y="693"/>
      <point x="308" y="693" type="curve" smooth="yes"/>
      <point x="485" y="693"/>
      <point x="608" y="552"/>
      <point x="608" y="374" type="curve" smooth="yes"/>
      <point x="608" y="253"/>
      <point x="553" y="151"/>
      <point x="463" y="98" type="curve"/>
      <point x="375" y="239" type="line"/>
      <point x="326" y="209" type="line"/>
      <point x="410" y="74" type="line"/>
      <point x="379" y="63"/>
      <point x="344" y="57"/>
    </contour>
  </outline>
</glyph>
<glyph name="breve.case" format="2">
  <advance width="278"/>
  <outline>
    <contour>
      <point x="-5" y="700" type="line"/>
      <point x="-2" y="622"/>
      <point x="56" y="573"/>
      <point x="132" y="573" type="curve" smooth="yes"/>
      <point x="214" y="573"/>
      <point x="273" y="617"/>
      <point x="282" y="700" type="curve"/>
      <point x="245" y="700" type="line"/>
      <point x="234" y="650"/>
      <point x="194" y="619"/>
      <point x="143" y="619" type="curve" smooth="yes"/>
      <point x="87" y="619"/>
      <point x="43" y="641"/>
      <point x="33" y="700" type="curve"/>
    </contour>
  </outline>
</glyph>
<glyph name="caron.case" format="2">
  <advance width="278"/>
  <outline>
    <contour>
      <point x="140" y="598" type="line"/>
      <point x="58" y="700" type="line"/>
      <point x="-6" y="700" type="line"/>
      <point x="106" y="561" type="line"/>
      <point x="174" y="561" type="line"/>
      <point x="287" y="700" type="line"/>
      <point x="222" y="700" type="line"/>
    </contour>
  </outline>
</glyph>
<glyph name="circumflex.case" format="2">
  <advance width="278"/>
  <outline>
    <contour>
      <point x="138" y="663" type="line"/>
      <point x="220" y="561" type="line"/>
      <point x="285" y="561" type="line"/>
      <point x="172" y="700" type="line"/>
      <point x="104" y="700" type="line"/>
      <point x="-8" y="561" type="line"/>
      <point x="56" y="561" type="line"/>
    </contour>
  </outline>
</glyph>
<glyph name="dotaccent.case" format="2">
  <advance width="278"/>
  <outline>
    <contour>
      <point x="106" y="521" type="line"/>
      <point x="171" y="521" type="line"/>
      <point x="171" y="623" type="line"/>
      <point x="106" y="623" type="line"/>
    </contour>
  </outline>
</glyph>
<glyph name="equal==" format="2">
  <advance width="394"/>
  <outline>
    <contour>
      <point x="37" y="306" type="line"/>
      <point x="357" y="306" type="line"/>
      <point x="357" y="354" type="line"/>
      <point x="37" y="354" type="line"/>
    </contour>
    <contour>
      <point x="37" y="157" type="line"/>
      <point x="357" y="157" type="line"/>
      <point x="357" y="205" type="line"/>
      <point x="37" y="205" type="line"/>
    </contour>
  </outline>
</glyph>
<glyph name="germandbls.alt" format="2">
  <advance width="556"/>
  <outline>
    <contour>
      <point x="100" y="45" type="line"/>
      <point x="24" y="45" type="line"/>
      <point x="24" y="0" type="line"/>
      <point x="150" y="0" type="line"/>
      <point x="150" y="45" type="line"/>
      <point x="150" y="45" type="line"/>
      <point x="150" y="319" type="line" smooth="yes"/>
      <point x="150" y="383"/>
      <point x="145" y="547"/>
      <point x="160" y="600" type="curve" smooth="yes"/>
      <point x="179" y="665"/>
      <point x="219" y="693"/>
      <point x="288" y="693" type="curve" smooth="yes"/>
      <point x="360" y="693"/>
      <point x="422" y="640"/>
      <point x="422" y="568" type="curve" smooth="yes"/>
      <point x="422" y="463"/>
      <point x="359" y="420"/>
      <point x="259" y="420" type="curve"/>
      <point x="259" y="375" type="line"/>
      <point x="382" y="382"/>
      <point x="464" y="323"/>
      <point x="464" y="193" type="curve" smooth="yes"/>
      <point x="464" y="132"/>
      <point x="440" y="35"/>
      <point x="363" y="35" type="curve" smooth="yes"/>
      <point x="333" y="35"/>
      <point x="320" y="45"/>
      <point x="294" y="61" type="curve"/>
      <point x="266" y="22" type="line"/>
      <point x="290" y="3"/>
      <point x="321" y="-10"/>
      <point x="363" y="-10" type="curve" smooth="yes"/>
      <point x="464" y="-10"/>
      <point x="514" y="90"/>
      <point x="514" y="193" type="curve" smooth="yes"/>
      <point x="514" y="273"/>
      <point x="467" y="392"/>
      <point x="375" y="403" type="curve"/>
      <point x="375" y="405" type="line"/>
      <point x="441" y="432"/>
      <point x="472" y="488"/>
      <point x="472" y="568" type="curve" smooth="yes"/>
      <point x="472" y="662"/>
      <point x="392" y="738"/>
      <point x="288" y="738" type="curve" smooth="yes"/>
      <point x="154" y="738"/>
      <point x="100" y="646"/>
      <point x="100" y="524" type="curve" smooth="yes"/>
    </contour>
  </outline>
</glyph>
<glyph name="quoteleft.alt" format="2">
  <advance width="191"/>
  <outline>
    <contour>
      <point x="90" y="433" type="curve" smooth="yes"/>
      <point x="117" y="433"/>
      <point x="143" y="456"/>
      <point x="143" y="486" type="curve" smooth="yes"/>
      <point x="143" y="512"/>
      <point x="118" y="536"/>
      <point x="93" y="539" type="curve"/>
      <point x="94" y="567"/>
      <point x="112" y="625"/>
      <point x="179" y="672" type="curve"/>
      <point x="166" y="693" type="line"/>
      <point x="68" y="644"/>
      <point x="31" y="559"/>
      <point x="31" y="505" type="curve" smooth="yes"/>
      <point x="31" y="458"/>
      <point x="58" y="433"/>
    </contour>
  </outline>
</glyph>
<glyph name="threesuperior" format="2">
  <advance width="300"/>
  <outline>
    <contour>
      <point x="25" y="407" type="line"/>
      <point x="25" y="335"/>
      <point x="74" y="279"/>
      <point x="160" y="279" type="curve" smooth="yes"/>
      <point x="233" y="279"/>
      <point x="291" y="329"/>
      <point x="291" y="403" type="curve" smooth="yes"/>
      <point x="291" y="455"/>
      <point x="263" y="492"/>
      <point x="210" y="508" type="curve"/>
      <point x="210" y="510" type="line"/>
      <point x="257" y="526"/>
      <point x="289" y="560"/>
      <point x="289" y="609" type="curve" smooth="yes"/>
      <point x="289" y="669"/>
      <point x="232" y="722"/>
      <point x="160" y="722" type="curve" smooth="yes"/>
      <point x="83" y="722"/>
      <point x="33" y="672"/>
      <point x="33" y="593" type="curve"/>
      <point x="73" y="593" type="line"/>
      <point x="73" y="641"/>
      <point x="101" y="689"/>
      <point x="160" y="689" type="curve" smooth="yes"/>
      <point x="205" y="689"/>
      <point x="249" y="662"/>
      <point x="249" y="606" type="curve" smooth="yes"/>
      <point x="249" y="566"/>
      <point x="214" y="533"/>
      <point x="179" y="527" type="curve" smooth="yes"/>
      <point x="164" y="524"/>
      <point x="149" y="524"/>
      <point x="134" y="524" type="curve"/>
      <point x="134" y="491" type="line"/>
      <point x="143" y="491"/>
      <point x="155" y="491"/>
      <point x="169" y="490" type="curve" smooth="yes"/>
      <point x="213" y="487"/>
      <point x="251" y="457"/>
      <point x="251" y="401" type="curve" smooth="yes"/>
      <point x="251" y="347"/>
      <point x="210" y="312"/>
      <point x="160" y="312" type="curve" smooth="yes"/>
      <point x="100" y="312"/>
      <point x="65" y="351"/>
      <point x="65" y="407" type="curve"/>
    </contour>
  </outline>
</glyph>
<glyph name="tilde.case" format="2">
  <advance width="278"/>
  <outline>
    <contour>
      <point x="20" y="603" type="line"/>
      <point x="23" y="626"/>
      <point x="41" y="653"/>
      <point x="67" y="653" type="curve" smooth="yes"/>
      <point x="86" y="653"/>
      <point x="110" y="642"/>
      <point x="136" y="630" type="curve" smooth="yes"/>
      <point x="161" y="619"/>
      <point x="187" y="607"/>
      <point x="208" y="607" type="curve" smooth="yes"/>
      <point x="266" y="607"/>
      <point x="289" y="654"/>
      <point x="295" y="705" type="curve"/>
      <point x="258" y="705" type="line"/>
      <point x="255" y="680"/>
      <point x="241" y="655"/>
      <point x="213" y="655" type="curve" smooth="yes"/>
      <point x="193" y="655"/>
      <point x="169" y="666"/>
      <point x="145" y="678" type="curve" smooth="yes"/>
      <point x="120" y="689"/>
      <point x="95" y="700"/>
      <point x="71" y="700" type="curve" smooth="yes"/>
      <point x="18" y="700"/>
      <point x="-13" y="651"/>
      <point x="-17" y="603" type="curve"/>
    </contour>
  </outline>
</glyph>
